<?xml version="1.0" encoding="UTF-8"?>
<svg version="1.1" xmlns="http://www.w3.org/2000/svg" width="1024" height="1024">
<path d="M0 0 C18.78478467 16.40214034 32.78309431 36.65867613 39 61 C39.21269531 61.80953125 39.42539062 62.6190625 39.64453125 63.453125 C47.11398729 94.19074265 38.66466653 125.25046185 22.6875 151.6875 C5.42196585 177.76198015 -20.92064236 196.14802857 -51.56298828 202.53466797 C-82.80085749 208.49934225 -114.42994297 202.59698915 -141 185 C-143.45089269 183.27297405 -145.85973823 181.49737664 -148.25 179.6875 C-148.82387451 179.2546167 -149.39774902 178.8217334 -149.98901367 178.37573242 C-151.36712318 177.30123469 -152.68960205 176.15610916 -154 175 C-154 174.34 -154 173.68 -154 173 C-154.85658203 172.64421875 -154.85658203 172.64421875 -155.73046875 172.28125 C-171.27080639 163.50804734 -181.95250398 139.08929746 -187.0078125 122.703125 C-195.47085896 91.11663664 -192.94401091 59.83970151 -177 31 C-160.88372488 4.18290159 -135.22831374 -15.51687338 -104.9375 -23.25 C-68.2955778 -32.03857124 -29.34055383 -24.0976879 0 0 Z " fill="#DBE5D6" transform="translate(258,403)"/>
<path d="M0 0 C6.24801006 5.00531193 12.37424745 10.21186215 17.12109375 16.69921875 C17.12109375 17.35921875 17.12109375 18.01921875 17.12109375 18.69921875 C16.5163623 19.04178711 15.91163086 19.38435547 15.28857422 19.73730469 C12.523094 21.30562795 9.75958417 22.87739219 6.99609375 24.44921875 C5.56910156 25.25746094 5.56910156 25.25746094 4.11328125 26.08203125 C-1.76236238 29.4210501 -1.76236238 29.4210501 -7.43359375 33.08984375 C-9.87890625 34.69921875 -9.87890625 34.69921875 -11.87890625 34.69921875 C-12.39453125 33.87421875 -12.91015625 33.04921875 -13.44140625 32.19921875 C-17.9245631 25.24373275 -24.48477697 19.82904189 -32.390625 17.32421875 C-45.03397348 15.05889315 -58.43039324 14.91865722 -69.25390625 22.32421875 C-77.02938629 28.46275563 -81.93723873 37.47594994 -83.62890625 47.23828125 C-84.97449391 60.48390981 -83.55304393 72.78245831 -75.50390625 83.76953125 C-69.53020945 90.8632962 -62.11018152 95.28313311 -52.87890625 96.69921875 C-40.79227009 97.50675961 -30.26599818 96.73993047 -20.00390625 89.63671875 C-14.8234193 85.0916591 -14.8234193 85.0916591 -9.87890625 74.69921875 C-28.68890625 74.20421875 -28.68890625 74.20421875 -47.87890625 73.69921875 C-47.87890625 64.78921875 -47.87890625 55.87921875 -47.87890625 46.69921875 C-24.44890625 46.69921875 -1.01890625 46.69921875 23.12109375 46.69921875 C23.12109375 70.06000192 20.61428107 89.54736541 4.37109375 106.88671875 C-12.11126783 122.57818006 -32.53558005 125.33496504 -54.33203125 124.94921875 C-72.72562504 124.3273934 -89.55222825 117.12587749 -102.26171875 103.65625 C-116.7379757 86.13788108 -119.34978199 65.63821444 -117.87890625 43.69921875 C-115.76187471 26.41908315 -106.06384877 12.46788397 -93.06640625 1.44921875 C-67.26442523 -18.30044574 -26.58027871 -19.14383022 0 0 Z " fill="#396443" transform="translate(229.87890625,435.30078125)"/>
<path d="M0 0 C0.99 0.495 0.99 0.495 2 1 C12.89 1.495 12.89 1.495 24 2 C23.67 32.69 23.34 63.38 23 95 C23.66 95.33 24.32 95.66 25 96 C17.85074873 99.57462563 6.49282551 99.12860013 -1 97 C-6.53029182 93.13823308 -9.33039014 86.74509001 -12.38378906 80.91015625 C-15.30657618 75.64737341 -18.8819794 70.83196716 -22.375 65.9375 C-23.67671384 64.07317289 -24.97626896 62.20733626 -26.2734375 60.33984375 C-26.88928711 59.45925293 -27.50513672 58.57866211 -28.13964844 57.67138672 C-29.42209447 55.82984807 -30.69567394 53.98211372 -31.96191406 52.12939453 C-32.89729004 50.76790283 -32.89729004 50.76790283 -33.8515625 49.37890625 C-34.40924316 48.56107666 -34.96692383 47.74324707 -35.54150391 46.90063477 C-36.86974309 44.88291 -36.86974309 44.88291 -39 44 C-39 61.49 -39 78.98 -39 97 C-46.92 97 -54.84 97 -63 97 C-63 65.65 -63 34.3 -63 2 C-45.21258134 -0.22342733 -45.21258134 -0.22342733 -38 2 C-35.3368334 4.29069575 -34.23780223 6.39728864 -32.6953125 9.546875 C-30.69530579 13.62062138 -28.22506704 17.08989077 -25.5625 20.75 C-24.53329567 22.19398818 -23.50603793 23.63936526 -22.48046875 25.0859375 C-21.93052246 25.8603418 -21.38057617 26.63474609 -20.81396484 27.43261719 C-17.30787423 32.39493871 -13.84302338 37.38603686 -10.375 42.375 C-9.67576416 43.38014648 -8.97652832 44.38529297 -8.25610352 45.42089844 C-3.27652324 52.58521514 -3.27652324 52.58521514 -1 56 C-0.67 37.52 -0.34 19.04 0 0 Z " fill="#406D4A" transform="translate(735,440)"/>
<path d="M0 0 C6.50353869 4.63550098 11.63346223 10.47404834 16.125 17.0625 C16.125 17.7225 16.125 18.3825 16.125 19.0625 C13.00352455 20.73583158 9.87726502 22.40001716 6.75 24.0625 C5.41582031 24.77792969 5.41582031 24.77792969 4.0546875 25.5078125 C3.20390625 25.95898438 2.353125 26.41015625 1.4765625 26.875 C0.69104004 27.29394531 -0.09448242 27.71289062 -0.90380859 28.14453125 C-2.875 29.0625 -2.875 29.0625 -4.875 29.0625 C-6.01324575 27.6895644 -7.08664428 26.26245619 -8.125 24.8125 C-11.81572376 19.92229101 -14.97599135 17.02883622 -20.875 15.0625 C-32.62199872 14.12753367 -32.62199872 14.12753367 -42.875 19.0625 C-50.1380106 26.86290825 -51.7932937 34.5690762 -51.875 45.0625 C-51.50515241 49.13082346 -51.03234867 53.13698988 -49.875 57.0625 C-49.215 57.3925 -48.555 57.7225 -47.875 58.0625 C-47.359375 59.135 -46.84375 60.2075 -46.3125 61.3125 C-43.74332714 66.00655267 -39.72151526 68.08466409 -34.875 70.0625 C-27.55329593 71.81261988 -20.59819635 71.63791007 -13.875 68.0625 C-9.37011358 64.12289856 -6.20431054 59.54323068 -3.875 54.0625 C-5.36 54.5575 -5.36 54.5575 -6.875 55.0625 C-9.61365287 55.13301114 -12.32527588 55.15607765 -15.0625 55.125 C-15.81208984 55.12048828 -16.56167969 55.11597656 -17.33398438 55.11132812 C-19.18102383 55.09956354 -21.02802213 55.08162865 -22.875 55.0625 C-23.5241344 51.48710894 -24.01284523 48.07270066 -24 44.4375 C-24.00386719 43.33535156 -24.00386719 43.33535156 -24.0078125 42.2109375 C-23.87410982 40.04810002 -23.46789685 38.14234449 -22.875 36.0625 C-17.85216113 35.0473948 -13.07286627 34.93197409 -7.9765625 34.96484375 C-7.14160248 34.9662587 -6.30664246 34.96767365 -5.44638062 34.96913147 C-2.79754958 34.97469826 -0.1488052 34.98724453 2.5 35 C4.30338419 35.0050193 6.10676971 35.00958145 7.91015625 35.01367188 C12.31513721 35.0246568 16.72005394 35.04189837 21.125 35.0625 C21.1402707 37.29164516 21.15113529 39.52082078 21.16015625 41.75 C21.16668213 42.99136719 21.17320801 44.23273438 21.17993164 45.51171875 C20.97047685 59.0508764 14.85876415 71.27697391 5.51171875 80.94140625 C-4.43120757 89.77775484 -15.74662473 93.0625 -28.875 93.0625 C-43.27904171 91.9942976 -54.58266699 87.25104322 -64.3125 76.4375 C-66.48204924 73.79112675 -67.65131041 71.26291892 -68.875 68.0625 C-69.865 67.7325 -70.855 67.4025 -71.875 67.0625 C-71.875 66.0725 -71.875 65.0825 -71.875 64.0625 C-72.31539169 62.63330432 -72.79925208 61.21717851 -73.3125 59.8125 C-77.89834266 46.35781069 -76.92160765 31.59880864 -70.6875 18.875 C-64.01449545 5.94833748 -54.58326937 -1.32072534 -40.875 -5.9375 C-27.1572796 -9.87904147 -11.86110875 -7.47597571 0 0 Z " fill="#406C4A" transform="translate(399.875,446.9375)"/>
<path d="M0 0 C0.99 0.33 1.98 0.66 3 1 C4.52187523 1.09474834 6.04745781 1.13531885 7.57226562 1.1418457 C8.49753052 1.14888016 9.42279541 1.15591461 10.37609863 1.16316223 C11.37604858 1.16732651 12.37599854 1.17149078 13.40625 1.17578125 C15.53386387 1.19899704 17.66146805 1.22311507 19.7890625 1.24804688 C23.13515542 1.28301408 26.4808959 1.3124229 29.82714844 1.32592773 C33.06228355 1.34153205 36.29639103 1.38183853 39.53125 1.42578125 C40.5150061 1.42387283 41.49876221 1.42196442 42.5123291 1.41999817 C52.16282045 1.58743491 61.13322179 3.9657394 68 11 C73.50085907 17.60103089 75.57101081 26.38208412 75.22265625 34.87890625 C74.20594492 44.56441946 70.43469423 51.11546279 63.1953125 57.51953125 C60.58201088 59.28188234 58.01337548 60.12002568 55 61 C61.53375894 71.55041403 68.15319699 82.01039986 75.2265625 92.2109375 C77 95 77 95 77 97 C72.79285562 97.26221814 68.58781109 97.42147604 64.375 97.5625 C62.59029297 97.67561523 62.59029297 97.67561523 60.76953125 97.79101562 C52.20052529 98.00643756 52.20052529 98.00643756 49.08666992 95.39599609 C47.47122202 93.01354186 46.24620439 90.59465793 45 88 C43.80878929 85.95943193 42.60082075 83.92858181 41.37890625 81.90625 C39.45121373 78.67423824 37.52946977 75.44252672 35.65429688 72.1796875 C35.02716797 71.14070313 34.40003906 70.10171875 33.75390625 69.03125 C32.92354858 67.61682617 32.92354858 67.61682617 32.07641602 66.17382812 C29.68197179 63.21864715 29.68197179 63.21864715 23 63 C23 74.22 23 85.44 23 97 C20.61561291 98.19219354 19.12343998 98.12916022 16.46484375 98.1328125 C15.57345703 98.13410156 14.68207031 98.13539063 13.76367188 98.13671875 C12.3647168 98.13091797 12.3647168 98.13091797 10.9375 98.125 C10.00099609 98.12886719 9.06449219 98.13273438 8.09960938 98.13671875 C7.20951172 98.13542969 6.31941406 98.13414062 5.40234375 98.1328125 C4.17245728 98.13112061 4.17245728 98.13112061 2.91772461 98.12939453 C1 98 1 98 0 97 C-0.09529612 93.98649762 -0.12551904 90.99595894 -0.11352539 87.98217773 C-0.11367142 87.03593536 -0.11381744 86.08969299 -0.1139679 85.11477661 C-0.11326836 81.97102608 -0.10547409 78.82733399 -0.09765625 75.68359375 C-0.09579221 73.51025932 -0.09436824 71.33692448 -0.09336853 69.16358948 C-0.08954221 63.43098805 -0.07971097 57.69841177 -0.06866455 51.96582031 C-0.05845287 46.12109721 -0.05387143 40.27637007 -0.04882812 34.43164062 C-0.0380888 22.954416 -0.02101102 11.47721009 0 0 Z M23 22 C23 29.59 23 37.18 23 45 C25.825625 45.061875 28.65125 45.12375 31.5625 45.1875 C32.43849854 45.21481201 33.31449707 45.24212402 34.21704102 45.27026367 C39.58845064 45.32667712 43.28759639 44.64441312 48 42 C50.19657612 39.83935969 50.88809752 38.62000022 51.43359375 35.59765625 C51.44021058 31.30333085 51.41687525 28.70437542 49.1875 24.9375 C45.9196962 22.04315949 43.31302535 21.87689076 39.11328125 21.90234375 C37.845448 21.90609009 37.845448 21.90609009 36.55200195 21.90991211 C35.48296631 21.91901611 34.41393066 21.92812012 33.3125 21.9375 C29.909375 21.958125 26.50625 21.97875 23 22 Z " fill="#406D4A" transform="translate(429,440)"/>
<path d="M0 0 C0.66 0 1.32 0 2 0 C2 0.66 2 1.32 2 2 C22.13 2 42.26 2 63 2 C64.35841412 6.07524236 64.02206383 9.82465575 63.9375 14.08984375 C63.99161771 16.60969957 64.26206437 18.60747431 65 21 C62.21938025 21.92687325 60.57948141 22.12193396 57.7121582 22.11352539 C56.85149246 22.11344986 55.99082672 22.11337433 55.1040802 22.11329651 C54.17899155 22.10813522 53.25390289 22.10297394 52.30078125 22.09765625 C51.35059616 22.0962413 50.40041107 22.09482635 49.4214325 22.09336853 C46.38508971 22.08776875 43.34882052 22.07521632 40.3125 22.0625 C38.25455836 22.05748497 36.19661556 22.05292207 34.13867188 22.04882812 C29.09241954 22.0377994 24.04622225 22.02053493 19 22 C19 27.94 19 33.88 19 40 C22.465 39.505 22.465 39.505 26 39 C28.47538125 38.91162926 30.95273034 38.86941241 33.4296875 38.8671875 C34.10548859 38.86623077 34.78128967 38.86527405 35.47756958 38.86428833 C36.89097183 38.86361321 38.3043773 38.86542044 39.71777344 38.86962891 C41.89004328 38.87503745 44.06211107 38.86963576 46.234375 38.86328125 C47.61197962 38.86394117 48.98958412 38.86522053 50.3671875 38.8671875 C52.24059814 38.86887939 52.24059814 38.86887939 54.15185547 38.87060547 C57 39 57 39 58 40 C58.12692296 42.96940703 58.18521201 45.90518257 58.1875 48.875 C58.19974609 49.70386719 58.21199219 50.53273438 58.22460938 51.38671875 C58.22654297 52.18464844 58.22847656 52.98257813 58.23046875 53.8046875 C58.23457764 54.53671387 58.23868652 55.26874023 58.24291992 56.02294922 C58 58 58 58 56 61 C56 60.01 56 59.02 56 58 C43.79 58 31.58 58 19 58 C19.495 67.405 19.495 67.405 20 77 C34.19 77.33 48.38 77.66 63 78 C63 84.27 63 90.54 63 97 C40.89 97 18.78 97 -4 97 C-4 65.98 -4 34.96 -4 3 C-4.66 2.67 -5.32 2.34 -6 2 C-4.02 1.67 -2.04 1.34 0 1 C0 0.67 0 0.34 0 0 Z M63 18 C64 20 64 20 64 20 Z " fill="#406D4A" transform="translate(598,440)"/>
<path d="M0 0 C22.11 0 44.22 0 67 0 C67 6.6 67 13.2 67 20 C52.48 20 37.96 20 23 20 C23.495 28.415 23.495 28.415 24 37 C26.57554687 36.98839844 29.15109375 36.97679687 31.8046875 36.96484375 C34.29345578 36.95704963 36.78222271 36.95097488 39.27099609 36.94506836 C41.00342414 36.94003318 42.73584792 36.93320468 44.46826172 36.92456055 C46.95541433 36.91245935 49.44251087 36.90676362 51.9296875 36.90234375 C53.09538773 36.89460182 53.09538773 36.89460182 54.28463745 36.88670349 C59.77225659 36.88612829 59.77225659 36.88612829 62 38 C62 43.94 62 49.88 62 56 C58.2143643 57.26187857 54.76317551 57.01657797 50.83203125 56.87890625 C50.03721848 56.85529526 49.2424057 56.83168427 48.42350769 56.80735779 C45.88631901 56.73081899 43.3494431 56.64675272 40.8125 56.5625 C39.09181215 56.50926951 37.37110906 56.45652917 35.65039062 56.40429688 C31.43333821 56.27613754 27.21679246 56.13780368 23 56 C23.33 62.27 23.66 68.54 24 75 C27.02027344 74.98839844 30.04054688 74.97679687 33.15234375 74.96484375 C36.0646962 74.95705391 38.9770475 74.95097674 41.8894043 74.94506836 C43.91968298 74.94002722 45.94995802 74.93319443 47.98022461 74.92456055 C50.89177347 74.91248533 53.8032745 74.90676966 56.71484375 74.90234375 C57.6283812 74.89718246 58.54191864 74.89202118 59.48313904 74.88670349 C61.65575427 74.88650832 63.82827296 74.93788195 66 75 C70.71993409 79.71993409 67 88.3250052 67 95 C45.22 95.33 23.44 95.66 1 96 C-0.68072775 92.6385445 -0.12876829 88.84012532 -0.11352539 85.14404297 C-0.11367142 84.22691528 -0.11381744 83.3097876 -0.1139679 82.36486816 C-0.11326948 79.32395081 -0.1054804 76.2830942 -0.09765625 73.2421875 C-0.09579182 71.13754307 -0.09436803 69.0328982 -0.09336853 66.92825317 C-0.08954535 61.38143725 -0.07971674 55.8346474 -0.06866455 50.2878418 C-0.05665044 43.63654621 -0.05204724 36.98524192 -0.04621124 30.3339386 C-0.0365049 20.22260759 -0.01734693 10.11133381 0 0 Z " fill="#406D4A" transform="translate(517,442)"/>
<path d="M0 0 C21.78 0 43.56 0 66 0 C67.14229879 3.42689636 66.90861076 5.61102218 66.5625 9.1875 C66.46066406 10.27417969 66.35882812 11.36085938 66.25390625 12.48046875 C66.12822266 13.72763672 66.12822266 13.72763672 66 15 C66.66 15 67.32 15 68 15 C68 16.66666667 68 18.33333333 68 20 C65.69179492 21.15410254 64.39215724 21.1210297 61.82568359 21.11352539 C60.53457169 21.11341209 60.53457169 21.11341209 59.21737671 21.11329651 C58.28712677 21.10813522 57.35687683 21.10297394 56.3984375 21.09765625 C55.44683746 21.0962413 54.49523743 21.09482635 53.51480103 21.09336853 C50.46816903 21.08776012 47.42160987 21.07520619 44.375 21.0625 C42.31250106 21.05748608 40.25000097 21.05292299 38.1875 21.04882812 C33.12497183 21.03778796 28.06249827 21.02051767 23 21 C23.12568359 22.06927734 23.12568359 22.06927734 23.25390625 23.16015625 C23.35574219 24.11792969 23.45757813 25.07570313 23.5625 26.0625 C23.66691406 27.00222656 23.77132812 27.94195312 23.87890625 28.91015625 C24 32 24 32 23 39 C35.87 39 48.74 39 62 39 C63.15551181 48.24409449 63.15551181 48.24409449 63.1875 51.75 C63.20167969 52.46671875 63.21585938 53.1834375 63.23046875 53.921875 C63 56 63 56 61 60 C48.46 59.67 35.92 59.34 23 59 C23.495 66.92 23.495 66.92 24 75 C24.0609469 78.84209232 24.09958084 82.66070736 24.0625 86.5 C24.05798828 87.42941406 24.05347656 88.35882812 24.04882812 89.31640625 C24.03734389 91.54434858 24.02112185 93.77213206 24 96 C16.84458247 99.57770876 7.99174832 96.36326129 0 96 C0 64.32 0 32.64 0 0 Z " fill="#406D4A" transform="translate(772,441)"/>
<path d="M0 0 C0.99 0.495 0.99 0.495 2 1 C4.17469687 1.09701224 6.35243771 1.12796946 8.52929688 1.12939453 C9.53441063 1.13202301 9.53441063 1.13202301 10.55982971 1.13470459 C12.77949599 1.1391135 14.99908288 1.1361885 17.21875 1.1328125 C18.75809749 1.13348582 20.29744487 1.13445607 21.83679199 1.13571167 C25.06487031 1.13718734 28.29292098 1.13503828 31.52099609 1.13037109 C35.66399079 1.12467388 39.80692071 1.12795358 43.94991302 1.13394356 C47.12913503 1.13755269 50.30834162 1.13640896 53.48756409 1.13381577 C55.01542671 1.13314747 56.54329073 1.13397152 58.07115173 1.13629532 C60.2043734 1.1388276 62.33748935 1.13497311 64.47070312 1.12939453 C65.68600708 1.12859894 66.90131104 1.12780334 68.15344238 1.12698364 C70.94754597 1.1957724 70.94754597 1.1957724 73 0 C73.85305168 2.90669462 74.07289715 5.31048873 73.87890625 8.328125 C73.83056641 9.12734375 73.78222656 9.9265625 73.73242188 10.75 C73.67634766 11.575 73.62027344 12.4 73.5625 13.25 C73.51029297 14.09046875 73.45808594 14.9309375 73.40429688 15.796875 C73.27504311 17.8649352 73.13825726 19.9325222 73 22 C72.31373535 22.02505615 71.6274707 22.0501123 70.92041016 22.07592773 C67.82174183 22.19171427 64.72339077 22.31451885 61.625 22.4375 C60.54476562 22.47681641 59.46453125 22.51613281 58.3515625 22.55664062 C57.3203125 22.59853516 56.2890625 22.64042969 55.2265625 22.68359375 C53.79691162 22.73858032 53.79691162 22.73858032 52.33837891 22.79467773 C49.97867651 22.85763465 49.97867651 22.85763465 48 24 C48 48.09 48 72.18 48 97 C40.08 97 32.16 97 24 97 C24 72.25 24 47.5 24 22 C16.41 22 8.82 22 1 22 C0.67 22.66 0.34 23.32 0 24 C0 16.08 0 8.16 0 0 Z " fill="#416E4B" transform="translate(886,440)"/>
<path d="M0 0 C0.33 31.68 0.66 63.36 1 96 C-6.92 96 -14.84 96 -23 96 C-23.13056044 84.31727129 -23.26098042 72.63454103 -23.39115143 60.95180798 C-23.45159721 55.52735992 -23.51210514 50.10291258 -23.57275391 44.6784668 C-23.63125414 39.44598359 -23.6895927 34.21349861 -23.74781799 28.98101234 C-23.77008781 26.98228198 -23.79241641 24.98355227 -23.81480408 22.98482323 C-23.84609156 20.19064882 -23.8771722 17.39647219 -23.90820312 14.60229492 C-23.91755386 13.77151428 -23.9269046 12.94073364 -23.9365387 12.08477783 C-23.97000573 9.05634195 -24 6.0286479 -24 3 C-24.33 2.67 -24.66 2.34 -25 2 C-25 1.67 -25 1.34 -25 1 C-21.02084729 0.83299906 -17.04167558 0.66645506 -13.0625 0.5 C-11.35803711 0.42845703 -11.35803711 0.42845703 -9.61914062 0.35546875 C-7.99975586 0.28779297 -7.99975586 0.28779297 -6.34765625 0.21875 C-5.34742432 0.17685547 -4.34719238 0.13496094 -3.31665039 0.09179688 C-1 0 -1 0 0 0 Z " fill="#3A6544" transform="translate(873,441)"/>
<path d="M0 0 C22.11 0 44.22 0 67 0 C67 6.6 67 13.2 67 20 C52.48 20 37.96 20 23 20 C23.495 28.415 23.495 28.415 24 37 C26.57554687 36.98839844 29.15109375 36.97679687 31.8046875 36.96484375 C34.29345578 36.95704963 36.78222271 36.95097488 39.27099609 36.94506836 C41.00342414 36.94003318 42.73584792 36.93320468 44.46826172 36.92456055 C46.95541433 36.91245935 49.44251087 36.90676362 51.9296875 36.90234375 C53.09538773 36.89460182 53.09538773 36.89460182 54.28463745 36.88670349 C59.77225659 36.88612829 59.77225659 36.88612829 62 38 C62 43.94 62 49.88 62 56 C58.2143643 57.26187857 54.76317551 57.01657797 50.83203125 56.87890625 C50.03721848 56.85529526 49.2424057 56.83168427 48.42350769 56.80735779 C45.88631901 56.73081899 43.3494431 56.64675272 40.8125 56.5625 C39.09181215 56.50926951 37.37110906 56.45652917 35.65039062 56.40429688 C31.43333821 56.27613754 27.21679246 56.13780368 23 56 C23 62.93 23 69.86 23 77 C22.67 77 22.34 77 22 77 C22 69.74 22 62.48 22 55 C34.54 55 47.08 55 60 55 C60 50.05 60 45.1 60 40 C58.88439697 40.00523682 57.76879395 40.01047363 56.61938477 40.01586914 C52.49520667 40.03391775 48.37103209 40.04543149 44.24682617 40.05493164 C42.45905979 40.05997218 40.67129755 40.06680454 38.88354492 40.07543945 C36.31948832 40.0875173 33.75548603 40.09323094 31.19140625 40.09765625 C29.98515343 40.10539818 29.98515343 40.10539818 28.75453186 40.11329651 C26.83598285 40.11349215 24.91754632 40.06201983 23 40 C22.505 39.505 22.505 39.505 22 39 C22 32.07 22 25.14 22 18 C36.19 18 50.38 18 65 18 C65 12.72 65 7.44 65 2 C44.54 2 24.08 2 3 2 C3 32.03 3 62.06 3 93 C23.46 93 43.92 93 65 93 C65 88.05 65 83.1 65 78 C51.47 78 37.94 78 24 78 C24 77.34 24 76.68 24 76 C29.96297719 75.83279246 35.92608092 75.67219216 41.8894043 75.51782227 C43.91972695 75.46431997 45.95000214 75.40898453 47.98022461 75.35180664 C50.89166014 75.2701245 53.80320053 75.19494999 56.71484375 75.12109375 C57.6283812 75.09405869 58.54191864 75.06702362 59.48313904 75.03916931 C61.65484502 74.98726229 63.82770633 74.98810764 66 75 C70.71993409 79.71993409 67 88.3250052 67 95 C45.22 95.33 23.44 95.66 1 96 C-0.68072775 92.6385445 -0.12876829 88.84012532 -0.11352539 85.14404297 C-0.11367142 84.22691528 -0.11381744 83.3097876 -0.1139679 82.36486816 C-0.11326948 79.32395081 -0.1054804 76.2830942 -0.09765625 73.2421875 C-0.09579182 71.13754307 -0.09436803 69.0328982 -0.09336853 66.92825317 C-0.08954535 61.38143725 -0.07971674 55.8346474 -0.06866455 50.2878418 C-0.05665044 43.63654621 -0.05204724 36.98524192 -0.04621124 30.3339386 C-0.0365049 20.22260759 -0.01734693 10.11133381 0 0 Z " fill="#1D321F" transform="translate(517,442)"/>
<path d="M0 0 C21.78 0 43.56 0 66 0 C67.14229879 3.42689636 66.90861076 5.61102218 66.5625 9.1875 C66.46066406 10.27417969 66.35882812 11.36085938 66.25390625 12.48046875 C66.12822266 13.72763672 66.12822266 13.72763672 66 15 C66.66 15 67.32 15 68 15 C68 16.66666667 68 18.33333333 68 20 C65.69179492 21.15410254 64.39215724 21.1210297 61.82568359 21.11352539 C60.53457169 21.11341209 60.53457169 21.11341209 59.21737671 21.11329651 C58.28712677 21.10813522 57.35687683 21.10297394 56.3984375 21.09765625 C55.44683746 21.0962413 54.49523743 21.09482635 53.51480103 21.09336853 C50.46816903 21.08776012 47.42160987 21.07520619 44.375 21.0625 C42.31250106 21.05748608 40.25000097 21.05292299 38.1875 21.04882812 C33.12497183 21.03778796 28.06249827 21.02051767 23 21 C23.12568359 22.06927734 23.12568359 22.06927734 23.25390625 23.16015625 C23.35574219 24.11792969 23.45757813 25.07570313 23.5625 26.0625 C23.66691406 27.00222656 23.77132812 27.94195312 23.87890625 28.91015625 C24 32 24 32 23 39 C35.87 39 48.74 39 62 39 C63.15551181 48.24409449 63.15551181 48.24409449 63.1875 51.75 C63.20167969 52.46671875 63.21585938 53.1834375 63.23046875 53.921875 C63 56 63 56 61 60 C48.46 59.67 35.92 59.34 23 59 C23 61.97 23 64.94 23 68 C22.67 68 22.34 68 22 68 C22 64.7 22 61.4 22 58 C34.54 58 47.08 58 60 58 C60.33 52.39 60.66 46.78 61 41 C48.13 41 35.26 41 22 41 C22 33.74 22 26.48 22 19 C35.86 19 49.72 19 64 19 C64 13.72 64 8.44 64 3 C43.54 3 23.08 3 2 3 C2 33.03 2 63.06 2 94 C8.6 94 15.2 94 22 94 C22 88.06 22 82.12 22 76 C22.33 76 22.66 76 23 76 C24.03026944 82.69675136 24.10152799 89.2314676 24 96 C16.84458247 99.57770876 7.99174832 96.36326129 0 96 C0 64.32 0 32.64 0 0 Z " fill="#355338" transform="translate(772,441)"/>
<path d="M0 0 C0.99 0.495 0.99 0.495 2 1 C12.89 1.495 12.89 1.495 24 2 C23.67 32.69 23.34 63.38 23 95 C23.66 95.33 24.32 95.66 25 96 C20.8794437 98.06027815 15.71686992 97.44893562 11.1875 97.5625 C10.09373047 97.62501953 8.99996094 97.68753906 7.87304688 97.75195312 C-0.00580365 97.91039436 -0.00580365 97.91039436 -2.91162109 95.24951172 C-4.26837519 93.17522089 -5.29908346 91.37768977 -6 89 C-5.67 88.34 -5.34 87.68 -5 87 C-2.525 90.465 -2.525 90.465 0 94 C6.93 94 13.86 94 21 94 C21 64.63 21 35.26 21 5 C14.73 4.67 8.46 4.34 2 4 C2 22.81 2 41.62 2 61 C-1.71002348 59.14498826 -2.54225628 58.68814671 -4.69921875 55.54296875 C-5.18116699 54.84969482 -5.66311523 54.1564209 -6.15966797 53.44213867 C-6.66385254 52.69810791 -7.16803711 51.95407715 -7.6875 51.1875 C-8.22004395 50.41704346 -8.75258789 49.64658691 -9.30126953 48.8527832 C-10.8749919 46.57355831 -12.43788104 44.28718574 -14 42 C-14.76309145 40.89498191 -15.52726997 39.790713 -16.29296875 38.6875 C-17.69742236 36.663822 -19.09838894 34.6377201 -20.49609375 32.609375 C-22.51316567 29.69120274 -24.55359861 26.78995242 -26.59765625 23.890625 C-27.23074707 22.99126221 -27.86383789 22.09189941 -28.51611328 21.1652832 C-29.77658784 19.37579372 -31.03921195 17.58781599 -32.30419922 15.80151367 C-32.88314941 14.9788501 -33.46209961 14.15618652 -34.05859375 13.30859375 C-34.57736084 12.57439209 -35.09612793 11.84019043 -35.63061523 11.08374023 C-37 9 -37 9 -39 5 C-46.26 4.67 -53.52 4.34 -61 4 C-61.33 4.66 -61.66 5.32 -62 6 C-62.33 4.68 -62.66 3.36 -63 2 C-45.79999622 -0.40451011 -45.79999622 -0.40451011 -38 2 C-35.3368334 4.29069575 -34.23780223 6.39728864 -32.6953125 9.546875 C-30.69530579 13.62062138 -28.22506704 17.08989077 -25.5625 20.75 C-24.53329567 22.19398818 -23.50603793 23.63936526 -22.48046875 25.0859375 C-21.93052246 25.8603418 -21.38057617 26.63474609 -20.81396484 27.43261719 C-17.30787423 32.39493871 -13.84302338 37.38603686 -10.375 42.375 C-9.67576416 43.38014648 -8.97652832 44.38529297 -8.25610352 45.42089844 C-3.27652324 52.58521514 -3.27652324 52.58521514 -1 56 C-0.67 37.52 -0.34 19.04 0 0 Z " fill="#24432A" transform="translate(735,440)"/>
<path d="M0 0 C0.66 0 1.32 0 2 0 C2 28.71 2 57.42 2 87 C8.27 87 14.54 87 21 87 C21 68.52 21 50.04 21 31 C25.47196208 32.11799052 25.72667525 32.47284291 28.109375 36.1015625 C28.98323853 37.41036377 28.98323853 37.41036377 29.87475586 38.74560547 C30.49358643 39.69580566 31.11241699 40.64600586 31.75 41.625 C33.07815813 43.62063678 34.40763189 45.61539846 35.73828125 47.609375 C36.43002441 48.65158203 37.12176758 49.69378906 37.83447266 50.76757812 C41.4645068 56.18602819 45.20194419 61.52900084 48.9375 66.875 C50.30079481 68.83071972 51.66407729 70.78644802 53.02734375 72.7421875 C54.01807569 74.16156548 55.00889729 75.5808809 56 77 C55.01 77 54.02 77 53 77 C51.12865427 74.68797252 49.46788795 72.39938723 47.8125 69.9375 C47.30219238 69.19757813 46.79188477 68.45765625 46.26611328 67.6953125 C45.13270831 66.05088285 44.00373193 64.40339499 42.87841797 62.75341797 C40.11359959 58.70069875 37.32911213 54.66173539 34.5378418 50.62719727 C33.10596613 48.5568851 31.67896742 46.48319068 30.25708008 44.40600586 C29.60247803 43.45733643 28.94787598 42.50866699 28.2734375 41.53125 C27.68997559 40.68111328 27.10651367 39.83097656 26.50537109 38.95507812 C25.1404659 36.88862876 25.1404659 36.88862876 23 36 C23 53.49 23 70.98 23 89 C15.08 89 7.16 89 -1 89 C-1.02276397 79.90596895 -1.04103675 70.81195741 -1.05181217 61.71790409 C-1.05698875 57.49332161 -1.06398908 53.26875995 -1.07543945 49.04418945 C-1.08645705 44.95279682 -1.09231596 40.86142397 -1.09487724 36.77001762 C-1.09669804 35.22384773 -1.10025161 33.67767867 -1.10573006 32.13151741 C-1.14223213 21.38350055 -0.74315746 10.72256506 0 0 Z " fill="#27442C" transform="translate(673,448)"/>
<path d="M0 0 C0.33 0 0.66 0 1 0 C1 30.36 1 60.72 1 92 C7.27 92 13.54 92 20 92 C19.98839844 89.62941406 19.97679687 87.25882813 19.96484375 84.81640625 C19.95705304 82.52954238 19.95097636 80.24267996 19.94506836 77.95581055 C19.94002843 76.36205386 19.9331965 74.76830181 19.92456055 73.17456055 C19.91248001 70.88849747 19.90676845 68.60249533 19.90234375 66.31640625 C19.89718246 65.59973282 19.89202118 64.88305939 19.88670349 64.14466858 C19.88650737 62.42936328 19.93807993 60.71418734 20 59 C21.53941441 57.46058559 22.98700385 57.53354706 25.125 57.3125 C28.2610911 57.36699763 29.5490621 57.58107022 31.87109375 59.73828125 C33.76600867 62.41216812 35.39570821 65.14157365 37 68 C37.67695081 69.16749967 38.35538947 70.33413765 39.03515625 71.5 C40.42103368 73.89287724 41.78412065 76.29692876 43.1328125 78.7109375 C44.68599728 81.44688223 46.29801546 84.10567374 48 86.75 C50 90 50 90 50 92 C57.26 91.67 64.52 91.34 72 91 C71.14277344 89.68386719 70.28554688 88.36773438 69.40234375 87.01171875 C67.0521031 83.40224896 64.70647093 79.78983169 62.36328125 76.17578125 C60.43693296 73.20543489 58.50269667 70.24138823 56.54296875 67.29296875 C55.91003906 66.33003906 55.27710938 65.36710937 54.625 64.375 C54.08101563 63.55773437 53.53703125 62.74046875 52.9765625 61.8984375 C52.65429688 61.27195312 52.33203125 60.64546875 52 60 C52.495 59.01 52.495 59.01 53 58 C59.35567944 66.43174665 65.09719424 75.19576008 70.76757812 84.09619141 C71.92400786 85.88260961 73.12025475 87.63488233 74.328125 89.38671875 C76 92 76 92 76 94 C71.79285562 94.26221814 67.58781109 94.42147604 63.375 94.5625 C61.59029297 94.67561523 61.59029297 94.67561523 59.76953125 94.79101562 C51.20052529 95.00643756 51.20052529 95.00643756 48.08666992 92.39599609 C46.47122202 90.01354186 45.24620439 87.59465793 44 85 C42.80878929 82.95943193 41.60082075 80.92858181 40.37890625 78.90625 C38.45121373 75.67423824 36.52946977 72.44252672 34.65429688 69.1796875 C34.02716797 68.14070313 33.40003906 67.10171875 32.75390625 66.03125 C32.20033447 65.08830078 31.6467627 64.14535156 31.07641602 63.17382812 C28.68197179 60.21864715 28.68197179 60.21864715 22 60 C22 71.22 22 82.44 22 94 C15.4340948 97.2829526 7.34090518 95 0 95 C0 63.65 0 32.3 0 0 Z " fill="#162918" transform="translate(430,443)"/>
<path d="M0 0 C0.99 0.495 0.99 0.495 2 1 C2 7.27 2 13.54 2 20 C9.92 20 17.84 20 26 20 C26 44.75 26 69.5 26 95 C32.6 95 39.2 95 46 95 C46 70.25 46 45.5 46 20 C54.25 20 62.5 20 71 20 C71 16.04 71 12.08 71 8 C71.33 8 71.66 8 72 8 C72 12.29 72 16.58 72 21 C63.75 21 55.5 21 47 21 C47 46.08 47 71.16 47 97 C39.41 97 31.82 97 24 97 C24 72.25 24 47.5 24 22 C16.41 22 8.82 22 1 22 C0.67 22.66 0.34 23.32 0 24 C0 16.08 0 8.16 0 0 Z " fill="#1B2E1E" transform="translate(886,440)"/>
<path d="M0 0 C9.57 0 19.14 0 29 0 C30.35841412 4.07524236 30.02206383 7.82465575 29.9375 12.08984375 C29.99161771 14.60969957 30.26206437 16.60747431 31 19 C28.21938025 19.92687325 26.57948141 20.12193396 23.7121582 20.11352539 C22.85149246 20.11344986 21.99082672 20.11337433 21.1040802 20.11329651 C20.17899155 20.10813522 19.25390289 20.10297394 18.30078125 20.09765625 C17.35059616 20.0962413 16.40041107 20.09482635 15.4214325 20.09336853 C12.38508971 20.08776875 9.34882052 20.07521632 6.3125 20.0625 C4.25455836 20.05748497 2.19661556 20.05292207 0.13867188 20.04882812 C-4.90758046 20.0377994 -9.95377775 20.02053493 -15 20 C-15 25.94 -15 31.88 -15 38 C-11.535 37.505 -11.535 37.505 -8 37 C-5.52461875 36.91162926 -3.04726966 36.86941241 -0.5703125 36.8671875 C0.10548859 36.86623077 0.78128967 36.86527405 1.47756958 36.86428833 C2.89097183 36.86361321 4.3043773 36.86542044 5.71777344 36.86962891 C7.89004328 36.87503745 10.06211107 36.86963576 12.234375 36.86328125 C13.61197962 36.86394117 14.98958412 36.86522053 16.3671875 36.8671875 C18.24059814 36.86887939 18.24059814 36.86887939 20.15185547 36.87060547 C23 37 23 37 24 38 C24.12692296 40.96940703 24.18521201 43.90518257 24.1875 46.875 C24.19974609 47.70386719 24.21199219 48.53273438 24.22460938 49.38671875 C24.22654297 50.18464844 24.22847656 50.98257813 24.23046875 51.8046875 C24.23457764 52.53671387 24.23868652 53.26874023 24.24291992 54.02294922 C24 56 24 56 22 59 C22 58.01 22 57.02 22 56 C9.79 56 -2.42 56 -15 56 C-15 62.27 -15 68.54 -15 75 C-15.33 75 -15.66 75 -16 75 C-16 68.4 -16 61.8 -16 55 C-11.93977093 53.98494273 -8.31157049 53.87279426 -4.171875 53.90234375 C-3.42286926 53.9037587 -2.67386353 53.90517365 -1.90216064 53.90663147 C0.48193412 53.91221341 2.86593378 53.92476255 5.25 53.9375 C6.86979031 53.94251734 8.48958209 53.94707984 10.109375 53.95117188 C14.07295312 53.96217692 18.03646045 53.97942909 22 54 C22 49.38 22 44.76 22 40 C9.46 40 -3.08 40 -16 40 C-16 32.74 -16 25.48 -16 18 C-1.81 18 12.38 18 27 18 C26.67 12.72 26.34 7.44 26 2 C13.13 1.505 13.13 1.505 0 1 C0 0.67 0 0.34 0 0 Z M29 16 C30 18 30 18 30 18 Z " fill="#263D29" transform="translate(632,442)"/>
<path d="M0 0 C0.33 0 0.66 0 1 0 C1 30.36 1 60.72 1 92 C21.79 92 42.58 92 64 92 C64 87.05 64 82.1 64 77 C49.81 77 35.62 77 21 77 C21 76.34 21 75.68 21 75 C26.71130076 74.15860301 32.11261222 73.91825716 37.875 74.12109375 C38.68493408 74.14470474 39.49486816 74.16831573 40.3293457 74.19264221 C42.88644458 74.268497 45.44317868 74.35285142 48 74.4375 C49.7460766 74.49079924 51.49217037 74.54353892 53.23828125 74.59570312 C57.49248271 74.72296556 61.7460851 74.86174777 66 75 C66 81.27 66 87.54 66 94 C44.22 94 22.44 94 0 94 C0 62.98 0 31.96 0 0 Z " fill="#152919" transform="translate(595,443)"/>
<path d="M0 0 C0.33 0 0.66 0 1 0 C1 30.03 1 60.06 1 91 C21.46 91 41.92 91 63 91 C63 86.05 63 81.1 63 76 C49.47 76 35.94 76 22 76 C22 75.34 22 74.68 22 74 C27.96297719 73.83279246 33.92608092 73.67219216 39.8894043 73.51782227 C41.91972695 73.46431997 43.95000214 73.40898453 45.98022461 73.35180664 C48.89166014 73.2701245 51.80320053 73.19494999 54.71484375 73.12109375 C55.6283812 73.09405869 56.54191864 73.06702362 57.48313904 73.03916931 C59.65484502 72.98726229 61.82770633 72.98810764 64 73 C68.71993409 77.71993409 65 86.3250052 65 93 C43.22 93.33 21.44 93.66 -1 94 C-1.33 93.34 -1.66 92.68 -2 92 C-1.34 92 -0.68 92 0 92 C0 61.64 0 31.28 0 0 Z " fill="#233D28" transform="translate(519,444)"/>
<path d="M0 0 C0.66 0 1.32 0 2 0 C2.85305168 2.90669462 3.07289715 5.31048873 2.87890625 8.328125 C2.83056641 9.12734375 2.78222656 9.9265625 2.73242188 10.75 C2.67634766 11.575 2.62027344 12.4 2.5625 13.25 C2.51029297 14.09046875 2.45808594 14.9309375 2.40429688 15.796875 C2.27504311 17.8649352 2.13825726 19.9325222 2 22 C1.31373535 22.02505615 0.6274707 22.0501123 -0.07958984 22.07592773 C-3.17825817 22.19171427 -6.27660923 22.31451885 -9.375 22.4375 C-10.45523438 22.47681641 -11.53546875 22.51613281 -12.6484375 22.55664062 C-13.6796875 22.59853516 -14.7109375 22.64042969 -15.7734375 22.68359375 C-17.20308838 22.73858032 -17.20308838 22.73858032 -18.66162109 22.79467773 C-21.02132349 22.85763465 -21.02132349 22.85763465 -23 24 C-23 48.09 -23 72.18 -23 97 C-23.33 97 -23.66 97 -24 97 C-24 71.92 -24 46.84 -24 21 C-15.75 21 -7.5 21 1 21 C0.67 15.39 0.34 9.78 0 4 C-22.77 4 -45.54 4 -69 4 C-69 3.34 -69 2.68 -69 2 C-34.845 1.505 -34.845 1.505 0 1 C0 0.67 0 0.34 0 0 Z " fill="#355339" transform="translate(957,440)"/>
<path d="M0 0 C1.28785652 0.00212242 1.28785652 0.00212242 2.60173035 0.00428772 C5.33217924 0.00986568 8.06254482 0.02241411 10.79296875 0.03515625 C12.64908735 0.0401741 14.50520725 0.04473651 16.36132812 0.04882812 C20.90107355 0.05982789 25.44075705 0.07707732 29.98046875 0.09765625 C29.99573945 2.32680141 30.00660404 4.55597703 30.015625 6.78515625 C30.02215088 8.02652344 30.02867676 9.26789063 30.03540039 10.546875 C29.85927446 21.93165489 25.2248096 31.73114497 18.98046875 41.09765625 C18.32046875 41.09765625 17.66046875 41.09765625 16.98046875 41.09765625 C17.24859375 40.5665625 17.51671875 40.03546875 17.79296875 39.48828125 C24.24792444 26.49343624 26.84123713 17.90766734 27.98046875 3.09765625 C14.78046875 3.09765625 1.58046875 3.09765625 -12.01953125 3.09765625 C-12.01953125 8.04765625 -12.01953125 12.99765625 -12.01953125 18.09765625 C-6.07953125 18.09765625 -0.13953125 18.09765625 5.98046875 18.09765625 C4.68682983 27.15312866 1.91539 30.68938754 -5.01953125 36.09375 C-7.01953125 37.09765625 -7.01953125 37.09765625 -9.26953125 36.7578125 C-10.13578125 36.43103516 -10.13578125 36.43103516 -11.01953125 36.09765625 C-10.50003906 35.80632813 -9.98054688 35.515 -9.4453125 35.21484375 C-2.37089398 31.05649793 1.54345673 26.69526176 4.98046875 19.09765625 C3.99046875 19.42765625 3.00046875 19.75765625 1.98046875 20.09765625 C-0.75818412 20.16816739 -3.46980713 20.1912339 -6.20703125 20.16015625 C-6.95662109 20.15564453 -7.70621094 20.15113281 -8.47851562 20.14648438 C-10.32555508 20.13471979 -12.17255338 20.1167849 -14.01953125 20.09765625 C-14.66866565 16.52226519 -15.15737648 13.10785691 -15.14453125 9.47265625 C-15.14710938 8.73789062 -15.1496875 8.003125 -15.15234375 7.24609375 C-15.01864107 5.08325627 -14.6124281 3.17750074 -14.01953125 1.09765625 C-9.33320562 -0.09770836 -4.79923796 -0.02994211 0 0 Z " fill="#2A422C" transform="translate(391.01953125,481.90234375)"/>
<path d="M0 0 C2 2 2 2 2.20254517 4.40444946 C2.18033905 5.41260712 2.15813293 6.42076477 2.13525391 7.45947266 C2.11508209 8.60050446 2.09491028 9.74153625 2.0741272 10.91714478 C2.04193085 12.15362762 2.0097345 13.39011047 1.9765625 14.6640625 C1.95153656 15.92640717 1.92651062 17.18875183 1.90072632 18.48934937 C1.83234761 21.84660107 1.75516751 25.20341857 1.67376709 28.56036377 C1.59286707 31.9854014 1.52347458 35.4106698 1.453125 38.8359375 C1.31272199 45.55755597 1.16071576 52.27883822 1 59 C-1.93833257 58.42801536 -2.79278741 58.2432447 -4.80834961 55.87719727 C-5.41686768 54.94963623 -6.02538574 54.0220752 -6.65234375 53.06640625 C-7.68427856 51.51675171 -7.68427856 51.51675171 -8.73706055 49.93579102 C-9.47056416 48.8113762 -10.20404346 47.68694552 -10.9375 46.5625 C-12.45836021 44.26737176 -13.98712566 41.97754541 -15.515625 39.6875 C-15.89587326 39.11548355 -16.27612152 38.5434671 -16.66789246 37.95411682 C-20.54929709 32.13234793 -24.62584272 26.46010638 -28.83789062 20.87353516 C-31.73203344 16.98828494 -33.67162503 13.48014938 -35.4375 8.9375 C-37.30766408 6.36598687 -38.34758361 5.1682299 -41.46264648 4.36499023 C-42.38118408 4.30512939 -43.29972168 4.24526855 -44.24609375 4.18359375 C-45.24133057 4.11599854 -46.23656738 4.04840332 -47.26196289 3.97875977 C-51.84773152 3.8259128 -56.41482096 3.84060656 -61 4 C-61.33 4.66 -61.66 5.32 -62 6 C-62.33 4.68 -62.66 3.36 -63 2 C-45.79999622 -0.40451011 -45.79999622 -0.40451011 -38 2 C-35.3368334 4.29069575 -34.23780223 6.39728864 -32.6953125 9.546875 C-30.69530579 13.62062138 -28.22506704 17.08989077 -25.5625 20.75 C-24.53329567 22.19398818 -23.50603793 23.63936526 -22.48046875 25.0859375 C-21.93052246 25.8603418 -21.38057617 26.63474609 -20.81396484 27.43261719 C-17.30787423 32.39493871 -13.84302338 37.38603686 -10.375 42.375 C-9.67576416 43.38014648 -8.97652832 44.38529297 -8.25610352 45.42089844 C-3.27652324 52.58521514 -3.27652324 52.58521514 -1 56 C-0.67 37.52 -0.34 19.04 0 0 Z " fill="#28412B" transform="translate(735,440)"/>
<path d="M0 0 C14.19 0 28.38 0 43 0 C43 0.33 43 0.66 43 1 C29.14 1 15.28 1 1 1 C1.33 4.96 1.66 8.92 2 13 C1.67 15.31 1.34 17.62 1 20 C13.87 20 26.74 20 40 20 C41.15551181 29.24409449 41.15551181 29.24409449 41.1875 32.75 C41.20167969 33.46671875 41.21585938 34.1834375 41.23046875 34.921875 C41 37 41 37 39 41 C26.46 40.67 13.92 40.34 1 40 C1 42.97 1 45.94 1 49 C0.67 49 0.34 49 0 49 C0 45.7 0 42.4 0 39 C12.54 39 25.08 39 38 39 C38.33 33.39 38.66 27.78 39 22 C26.13 22 13.26 22 0 22 C0 14.74 0 7.48 0 0 Z " fill="#192B1A" transform="translate(794,460)"/>
<path d="M0 0 C0.66 0 1.32 0 2 0 C2 0.66 2 1.32 2 2 C3.24982666 1.99214478 3.24982666 1.99214478 4.52490234 1.98413086 C23.04856322 1.88380389 41.49295626 2.09580971 60 3 C60 3.33 60 3.66 60 4 C39.54 4 19.08 4 -2 4 C-2.33 34.69 -2.66 65.38 -3 97 C-3.33 97 -3.66 97 -4 97 C-4 65.98 -4 34.96 -4 3 C-4.66 2.67 -5.32 2.34 -6 2 C-4.02 1.67 -2.04 1.34 0 1 C0 0.67 0 0.34 0 0 Z " fill="#3C5D40" transform="translate(598,440)"/>
<path d="M0 0 C3.691875 -0.061875 7.38375 -0.12375 11.1875 -0.1875 C12.3427417 -0.21481201 13.4979834 -0.24212402 14.68823242 -0.27026367 C15.60967041 -0.27775635 16.5311084 -0.28524902 17.48046875 -0.29296875 C18.41785889 -0.3086792 19.35524902 -0.32438965 20.32104492 -0.34057617 C24.55397804 0.19755758 27.18664539 2.27457562 30.3125 5.0625 C32.78240303 9.36196084 32.7608897 13.15515128 32 18 C29.61274834 23.04995544 27.16554352 25.04026529 22 27 C18.19742537 27.35446495 14.43964384 27.28273967 10.625 27.1875 C5.365625 27.0946875 5.365625 27.0946875 0 27 C0 18.09 0 9.18 0 0 Z M2 2 C2 9.59 2 17.18 2 25 C4.825625 25.061875 7.65125 25.12375 10.5625 25.1875 C11.43849854 25.21481201 12.31449707 25.24212402 13.21704102 25.27026367 C18.58845064 25.32667712 22.28759639 24.64441312 27 22 C29.19657612 19.83935969 29.88809752 18.62000022 30.43359375 15.59765625 C30.44021058 11.30333085 30.41687525 8.70437542 28.1875 4.9375 C24.9196962 2.04315949 22.31302535 1.87689076 18.11328125 1.90234375 C16.845448 1.90609009 16.845448 1.90609009 15.55200195 1.90991211 C14.48296631 1.91901611 13.41393066 1.92812012 12.3125 1.9375 C8.909375 1.958125 5.50625 1.97875 2 2 Z " fill="#253E28" transform="translate(450,460)"/>
<path d="M0 0 C0.99 0.33 1.98 0.66 3 1 C4.57961159 1.11448477 6.16333852 1.17622932 7.74682617 1.20532227 C9.18798042 1.2352401 9.18798042 1.2352401 10.6582489 1.26576233 C11.69270645 1.28247482 12.727164 1.29918732 13.79296875 1.31640625 C15.38471672 1.3475779 15.38471672 1.3475779 17.00862122 1.37937927 C20.40151437 1.44481238 23.7944855 1.50373093 27.1875 1.5625 C29.48633622 1.60569114 31.78516453 1.64930562 34.08398438 1.69335938 C39.7225736 1.8004874 45.36124056 1.90226551 51 2 C51.495 2.99 51.495 2.99 52 4 C35.5 4 19 4 2 4 C1.67 34.69 1.34 65.38 1 97 C0.67 97 0.34 97 0 97 C0 64.99 0 32.98 0 0 Z " fill="#3A573D" transform="translate(429,440)"/>
<path d="M0 0 C9.57 0 19.14 0 29 0 C30.35841412 4.07524236 30.02206383 7.82465575 29.9375 12.08984375 C29.99161771 14.60969957 30.26206437 16.60747431 31 19 C28.21938025 19.92687325 26.57948141 20.12193396 23.7121582 20.11352539 C22.85149246 20.11344986 21.99082672 20.11337433 21.1040802 20.11329651 C20.17899155 20.10813522 19.25390289 20.10297394 18.30078125 20.09765625 C17.35059616 20.0962413 16.40041107 20.09482635 15.4214325 20.09336853 C12.38508971 20.08776875 9.34882052 20.07521632 6.3125 20.0625 C4.25455836 20.05748497 2.19661556 20.05292207 0.13867188 20.04882812 C-4.90760329 20.03865008 -9.9537192 20.01907456 -15 20 C-14.67 26.27 -14.34 32.54 -14 39 C-14.66 39 -15.32 39 -16 39 C-16 32.07 -16 25.14 -16 18 C-1.81 18 12.38 18 27 18 C26.67 12.72 26.34 7.44 26 2 C13.13 1.505 13.13 1.505 0 1 C0 0.67 0 0.34 0 0 Z M29 16 C30 18 30 18 30 18 Z " fill="#29402A" transform="translate(632,442)"/>
<path d="M0 0 C0.33 0 0.66 0 1 0 C1 30.36 1 60.72 1 92 C7.6 92 14.2 92 21 92 C21 86.06 21 80.12 21 74 C21.33 74 21.66 74 22 74 C23.03026944 80.69675136 23.10152799 87.2314676 23 94 C16.14272487 97.42863757 7.65798906 94.36466615 0 94 C0 62.98 0 31.96 0 0 Z " fill="#050F07" transform="translate(773,443)"/>
<path d="M0 0 C0.33 0 0.66 0 1 0 C1 29.04 1 58.08 1 88 C1.66 88.33 2.32 88.66 3 89 C-1.1205563 91.06027815 -6.28313008 90.44893562 -10.8125 90.5625 C-11.90626953 90.62501953 -13.00003906 90.68753906 -14.12695312 90.75195312 C-22.00580365 90.91039436 -22.00580365 90.91039436 -24.91162109 88.24951172 C-26.26837519 86.17522089 -27.29908346 84.37768977 -28 82 C-27.505 81.01 -27.505 81.01 -27 80 C-24.525 83.465 -24.525 83.465 -22 87 C-14.74 87.33 -7.48 87.66 0 88 C0 58.96 0 29.92 0 0 Z " fill="#09170A" transform="translate(757,447)"/>
<path d="M0 0 C0.33 31.68 0.66 63.36 1 96 C0.34 96 -0.32 96 -1 96 C-1.33 65.64 -1.66 35.28 -2 4 C-8.6 3.67 -15.2 3.34 -22 3 C-22 4.65 -22 6.3 -22 8 C-22.99 7.34 -23.98 6.68 -25 6 C-24.67 5.01 -24.34 4.02 -24 3 C-24.33 2.67 -24.66 2.34 -25 2 C-25 1.67 -25 1.34 -25 1 C-21.02084729 0.83299906 -17.04167558 0.66645506 -13.0625 0.5 C-11.35803711 0.42845703 -11.35803711 0.42845703 -9.61914062 0.35546875 C-7.99975586 0.28779297 -7.99975586 0.28779297 -6.34765625 0.21875 C-5.34742432 0.17685547 -4.34719238 0.13496094 -3.31665039 0.09179688 C-1 0 -1 0 0 0 Z " fill="#2A432D" transform="translate(873,441)"/>
<path d="M0 0 C0 0.66 0 1.32 0 2 C-1.19686919 2.87909003 -2.43435671 3.70317691 -3.6875 4.5 C-9.55759095 8.81930451 -12.23622413 13.99520152 -13.59375 21.11328125 C-14.3691312 28.47059146 -14.10378904 35.86434128 -12 43 C-11.34 43.33 -10.68 43.66 -10 44 C-9.484375 45.0725 -8.96875 46.145 -8.4375 47.25 C-5.73901999 52.02876278 -2.10027768 54.17388659 3 56 C7.6466901 56.94209556 12.28183143 57.55033102 17 58 C12.8481458 60.7679028 9.71332023 60.50008274 4.859375 59.60546875 C-2.42441305 57.63171499 -8.22816778 53.15393039 -12.41796875 46.875 C-17.19103046 37.77688958 -17.70272173 25.01254178 -15.0625 15.125 C-12.88516338 9.64994967 -6.46876018 0 0 0 Z " fill="#243C26" transform="translate(362,461)"/>
<path d="M0 0 C0.66 0 1.32 0 2 0 C2 18.48 2 36.96 2 56 C1.67 56 1.34 56 1 56 C1 52.7 1 49.4 1 46 C0.34 45.67 -0.32 45.34 -1 45 C-1.10369435 29.96750982 -1.19944734 14.99309175 0 0 Z " fill="#2B4B32" transform="translate(673,448)"/>
<path d="M0 0 C-2.36288517 2.36288517 -3.2127114 2.31658841 -6.4375 2.75 C-16.26113733 4.59281797 -24.99791976 9.99722635 -31 18 C-35.11107314 24.9547008 -38.55814673 31.98970406 -40 40 C-40.33 40 -40.66 40 -41 40 C-42.2811365 30.849025 -37.35865026 22.85736148 -32.29296875 15.53125 C-24.40951646 5.93079288 -12.58255426 -0.93204106 0 0 Z " fill="#253D27" transform="translate(367,441)"/>
<path d="M0 0 C0.33 0.66 0.66 1.32 1 2 C1.66 2.33 2.32 2.66 3 3 C3.103125 4.155 3.20625 5.31 3.3125 6.5 C4.35615286 16.11529354 11.26606937 23.5485329 18 30 C22.88128296 33.8444691 28.15090774 36.01548655 34 38 C34 38.33 34 38.66 34 39 C25.24166161 38.83474833 18.85539684 34.66168971 12.58984375 28.7109375 C7.41473436 23.0943941 7.41473436 23.0943941 5.97265625 19.2890625 C5.65167969 18.53367187 5.33070313 17.77828125 5 17 C4.01 16.67 3.02 16.34 2 16 C2 15.01 2 14.02 2 13 C1.505 11.9171875 1.505 11.9171875 1 10.8125 C-0.33807096 7.04917544 -0.13502498 3.983237 0 0 Z " fill="#2D462F" transform="translate(326,498)"/>
<path d="M0 0 C0.66 0 1.32 0 2 0 C2 5.94 2 11.88 2 18 C-1.7856357 19.26187857 -5.23682449 19.01657797 -9.16796875 18.87890625 C-9.96278152 18.85529526 -10.7575943 18.83168427 -11.57649231 18.80735779 C-14.11368099 18.73081899 -16.6505569 18.64675272 -19.1875 18.5625 C-20.90818785 18.50926951 -22.62889094 18.45652917 -24.34960938 18.40429688 C-28.56666179 18.27613754 -32.78320754 18.13780368 -37 18 C-37 24.93 -37 31.86 -37 39 C-37.33 39 -37.66 39 -38 39 C-38 31.74 -38 24.48 -38 17 C-25.46 17 -12.92 17 0 17 C0 11.39 0 5.78 0 0 Z " fill="#122214" transform="translate(577,480)"/>
<path d="M0 0 C0.66 0 1.32 0 2 0 C3.35009766 1.65454102 3.35009766 1.65454102 4.9140625 4.00390625 C5.5030835 4.87966309 6.09210449 5.75541992 6.69897461 6.65771484 C7.65235718 8.0955835 7.65235718 8.0955835 8.625 9.5625 C9.97154837 11.56715087 11.31924503 13.5710308 12.66796875 15.57421875 C13.37228027 16.62270996 14.0765918 17.67120117 14.80224609 18.75146484 C18.46254232 24.16180716 22.19933751 29.51820388 25.9375 34.875 C26.99348389 36.39009155 26.99348389 36.39009155 28.07080078 37.93579102 C29.7129207 40.29119013 31.35594777 42.64594942 33 45 C32.01 45 31.02 45 30 45 C28.12858886 42.68789171 26.46743885 40.39982006 24.8125 37.9375 C23.74885276 36.38921653 22.68504143 34.84104578 21.62109375 33.29296875 C21.04601074 32.44911621 20.47092773 31.60526367 19.87841797 30.73583984 C17.85026951 27.78192359 15.78981323 24.85252062 13.72265625 21.92578125 C12.27336723 19.86723697 10.82414777 17.80864372 9.375 15.75 C8.67608643 14.76249756 7.97717285 13.77499512 7.25708008 12.75756836 C6.60247803 11.82178955 5.94787598 10.88601074 5.2734375 9.921875 C4.68997559 9.09268555 4.10651367 8.26349609 3.50537109 7.40917969 C2.0024894 5.00398401 0.96545615 2.66107925 0 0 Z " fill="#1D321F" transform="translate(696,480)"/>
<path d="M0 0 C0.77120178 0.00424484 1.54240356 0.00848969 2.3369751 0.01286316 C4.79271815 0.02961492 7.24763129 0.06725936 9.703125 0.10546875 C11.37108187 0.12052018 13.03905165 0.13420778 14.70703125 0.14648438 C18.78963707 0.17695158 22.8704555 0.23567557 26.953125 0.29296875 C26.953125 5.90296875 26.953125 11.51296875 26.953125 17.29296875 C26.623125 17.29296875 26.293125 17.29296875 25.953125 17.29296875 C25.953125 12.67296875 25.953125 8.05296875 25.953125 3.29296875 C13.413125 3.29296875 0.873125 3.29296875 -12.046875 3.29296875 C-7.59877097 -0.04310927 -5.2463974 -0.10904875 0 0 Z " fill="#1C3521" transform="translate(628.046875,478.70703125)"/>
<path d="M0 0 C0 0.66 0 1.32 0 2 C-11.11439165 10.32999291 -23.53401033 12.88874113 -37.25 11.6875 C-39.10625 11.3471875 -39.10625 11.3471875 -41 11 C-41.33 10.34 -41.66 9.68 -42 9 C-41.37134033 8.99589111 -40.74268066 8.99178223 -40.0949707 8.98754883 C-20.91493829 9.10030129 -20.91493829 9.10030129 -3.79296875 1.3359375 C-2 0 -2 0 0 0 Z " fill="#2E4932" transform="translate(403,528)"/>
<path d="M0 0 C0.33 0 0.66 0 1 0 C2.03026944 6.69675136 2.10152799 13.2314676 2 20 C-0.50100574 21.25050287 -2.00343052 21.02993449 -4.7890625 20.87890625 C-5.73007812 20.83056641 -6.67109375 20.78222656 -7.640625 20.73242188 C-8.62546875 20.67634766 -9.6103125 20.62027344 -10.625 20.5625 C-11.61757813 20.51029297 -12.61015625 20.45808594 -13.6328125 20.40429688 C-16.08884568 20.27441051 -18.5444936 20.13943836 -21 20 C-20.67 19.34 -20.34 18.68 -20 18 C-13.4 18 -6.8 18 0 18 C0 12.06 0 6.12 0 0 Z " fill="#223925" transform="translate(794,517)"/>
<path d="M0 0 C2.86879133 0.01833093 4.24856584 0.09075777 6.4921875 1.921875 C7.89857219 3.78116323 8.97136139 5.2983322 9.75 7.5 C9.3671875 9.734375 9.3671875 9.734375 8.75 11.5 C8.47027344 10.93410156 8.19054687 10.36820312 7.90234375 9.78515625 C7.50144531 9.05167969 7.10054688 8.31820313 6.6875 7.5625 C6.30464844 6.83160156 5.92179687 6.10070312 5.52734375 5.34765625 C3.35598035 2.71109066 3.35598035 2.71109066 -3.25 2.5 C-3.25 13.72 -3.25 24.94 -3.25 36.5 C-4.24 36.5 -5.23 36.5 -6.25 36.5 C-5.26 36.005 -5.26 36.005 -4.25 35.5 C-4.28552979 34.47527588 -4.32105957 33.45055176 -4.35766602 32.39477539 C-4.4876754 28.60619988 -4.61096137 24.81743066 -4.73217773 21.02856445 C-4.78566959 19.38625066 -4.84100431 17.74399584 -4.89819336 16.10180664 C-4.97990479 13.74638594 -5.05506639 11.39083518 -5.12890625 9.03515625 C-5.15594131 8.29660904 -5.18297638 7.55806183 -5.21083069 6.7971344 C-5.2629438 5.03214384 -5.2618612 3.2657199 -5.25 1.5 C-3.69076222 -0.05923778 -2.16147277 0.14314389 0 0 Z " fill="#2E4931" transform="translate(455.25,500.5)"/>
<path d="M0 0 C4.875 4.75 4.875 4.75 6 7 C13.26 7.33 20.52 7.66 28 8 C28 5.69 28 3.38 28 1 C28.33 1 28.66 1 29 1 C29 3.31 29 5.62 29 8 C29.66 8.33 30.32 8.66 31 9 C26.8794437 11.06027815 21.71686992 10.44893562 17.1875 10.5625 C16.09373047 10.62501953 14.99996094 10.68753906 13.87304688 10.75195312 C5.97629811 10.91075429 5.97629811 10.91075429 3.12353516 8.24951172 C1.38368024 5.53700615 0 3.26850819 0 0 Z " fill="#1B321F" transform="translate(729,527)"/>
<path d="M0 0 C0.66 0.33 1.32 0.66 2 1 C2.36610436 9.78650453 1.52275371 17.78166401 -4 25 C-6.4578939 27.62478793 -8.89781076 30.15807514 -12 32 C-14.25 31.6875 -14.25 31.6875 -16 31 C-15.40832031 30.67128906 -14.81664062 30.34257812 -14.20703125 30.00390625 C-8.1100038 26.33375433 -4.23558441 22.86643783 -2 16 C-0.94418432 10.71437188 -0.44116187 5.36637201 0 0 Z " fill="#243D28" transform="translate(502,467)"/>
<path d="M0 0 C0.80179688 0.0103125 1.60359375 0.020625 2.4296875 0.03125 C4.64978086 0.1277758 6.60952861 0.27635479 8.75 0.875 C10.859375 3.2421875 10.859375 3.2421875 11.75 5.875 C11.42 6.865 11.09 7.855 10.75 8.875 C10.48574219 8.06675781 10.22148438 7.25851562 9.94921875 6.42578125 C8.04093236 3.69666704 8.04093236 3.69666704 5.43994141 3.36865234 C2.47351415 3.15569137 -0.46350344 3.07934454 -3.4375 3.0625 C-4.47326172 3.03736328 -5.50902344 3.01222656 -6.57617188 2.98632812 C-9.13449579 2.92738057 -11.69110605 2.89115743 -14.25 2.875 C-14.58 3.535 -14.91 4.195 -15.25 4.875 C-15.58 3.555 -15.91 2.235 -16.25 0.875 C-10.75593297 -0.07985122 -5.56592257 -0.23723604 0 0 Z " fill="#1C301D" transform="translate(688.25,441.125)"/>
<path d="M0 0 C0 0.66 0 1.32 0 2 C-1.19686919 2.87909003 -2.43435671 3.70317691 -3.6875 4.5 C-9.26835053 8.64859685 -12.15730648 13.31193569 -13.39794922 20.21386719 C-14.14802627 25.45914652 -14.61440465 30.71676817 -15 36 C-15.33 36 -15.66 36 -16 36 C-16.69804956 14.92924468 -16.69804956 14.92924468 -8.4375 5.5 C-3.26851852 0 -3.26851852 0 0 0 Z " fill="#172A19" transform="translate(362,461)"/>
<path d="M0 0 C6.93 0 13.86 0 21 0 C21.33 0.66 21.66 1.32 22 2 C18.03214503 3.28799481 14.00214611 3.22046765 9.875 3.25 C9.14667969 3.270625 8.41835938 3.29125 7.66796875 3.3125 C5.5546875 3.328125 5.5546875 3.328125 2 3 C1.34 2.01 0.68 1.02 0 0 Z M-2 3 C2 4 2 4 2 4 Z " fill="#33583A" transform="translate(363,440)"/>
<path d="M0 0 C8.43539813 0.36675644 15.94852508 5.29432365 22 11 C23.77733081 13.27597085 25.38534648 15.60108621 27 18 C26.67 18.66 26.34 19.32 26 20 C25.48953125 19.35933594 24.9790625 18.71867187 24.453125 18.05859375 C17.59264932 9.89657393 9.95464105 4.7784039 0 1 C0 0.67 0 0.34 0 0 Z " fill="#213824" transform="translate(386,442)"/>
<path d="M0 0 C6.50313893 0.27096412 10.25929964 2.60969924 15 7 C19.11023401 11.74257771 19.73057018 15.93782902 20 22 C18.99901302 20.0287581 18.02670802 18.06106424 17.140625 16.03515625 C13.52029131 8.01643469 7.75090944 4.60818198 0 1 C0 0.67 0 0.34 0 0 Z " fill="#243C28" transform="translate(482,444)"/>
<path d="M0 0 C1.65 0 3.3 0 5 0 C4.48628002 6.42149977 2.89195651 10.35151416 -1.90234375 14.7421875 C-5.81128042 17.90136537 -5.81128042 17.90136537 -8 19 C-10.25 18.66015625 -10.25 18.66015625 -12 18 C-11.48050781 17.70867188 -10.96101563 17.41734375 -10.42578125 17.1171875 C-3.35136273 12.95884168 0.56298798 8.59760551 4 1 C3.01 1.33 2.02 1.66 1 2 C0.67 1.34 0.34 0.68 0 0 Z " fill="#253E28" transform="translate(392,500)"/>
<path d="M0 0 C10.18453155 -0.50548226 16.79220582 0.63273763 24.5546875 7.40234375 C26.13418668 9.14833068 27.04650285 10.85694573 28 13 C27.01 13 26.02 13 25 13 C23.74609375 11.609375 23.74609375 11.609375 22.4375 9.75 C17.68082952 3.93367521 11.14791631 2.09755245 3.875 1.25 C2.59625 1.1675 1.3175 1.085 0 1 C0 0.67 0 0.34 0 0 Z " fill="#1F3621" transform="translate(367,459)"/>
<path d="M0 0 C0.66 0 1.32 0 2 0 C1.81724776 9.13761202 -3.01420711 17.52131066 -8 25 C-8.66 25 -9.32 25 -10 25 C-9.731875 24.46890625 -9.46375 23.9378125 -9.1875 23.390625 C-3.52363525 12.0822414 -3.52363525 12.0822414 0 0 Z " fill="#243B27" transform="translate(418,498)"/>
<path d="M0 0 C5.28 0.33 10.56 0.66 16 1 C15.67 2.65 15.34 4.3 15 6 C14.67 5.01 14.34 4.02 14 3 C7.4 3 0.8 3 -6 3 C-6 2.67 -6 2.34 -6 2 C-4.02 2 -2.04 2 0 2 C0 1.34 0 0.68 0 0 Z " fill="#233C26" transform="translate(743,441)"/>
<path d="M0 0 C0 0.66 0 1.32 0 2 C-6.78923474 6.93762527 -13.47952226 10.40573704 -22 10 C-17.9756972 7.31713147 -13.66042872 5.96095195 -9.12890625 4.31640625 C-6.01438815 3.00605344 -3.30622411 0 0 0 Z " fill="#253C27" transform="translate(403,528)"/>
<path d="M0 0 C0.33 0 0.66 0 1 0 C2.38529821 5.45461169 3.2396943 10.36718401 3 16 C2.67 16 2.34 16 2 16 C1.67 18.64 1.34 21.28 1 24 C0.67 24 0.34 24 0 24 C0 16.08 0 8.16 0 0 Z " fill="#375A3D" transform="translate(793,504)"/>
<path d="M0 0 C2.67289025 3.87671106 2.01875653 7.79267603 1.625 12.25 C1.53992188 13.36761719 1.53992188 13.36761719 1.453125 14.5078125 C1.31223742 16.33935108 1.15748116 18.16981352 1 20 C-1 18 -1 18 -1.23046875 15.64453125 C-1.14991255 10.33514524 -0.93006067 5.23159127 0 0 Z " fill="#39523C" transform="translate(325,477)"/>
<path d="M0 0 C2.22825644 2.22825644 2.69239369 3.65761628 3.625 6.625 C4.01558594 7.85089844 4.01558594 7.85089844 4.4140625 9.1015625 C4.60742188 9.72804688 4.80078125 10.35453125 5 11 C5.66 11 6.32 11 7 11 C7.99 14.3 8.98 17.6 10 21 C6.77623824 17.77623824 5.1698071 14.57134124 3.3125 10.5 C2.83200195 9.48486328 2.83200195 9.48486328 2.34179688 8.44921875 C0.96305234 5.4683084 0 3.32224796 0 0 Z " fill="#C7D0C0" transform="translate(74,531)"/>
<path d="M0 0 C0.80824219 0.40992188 1.61648438 0.81984375 2.44921875 1.2421875 C4.05216797 2.05042969 4.05216797 2.05042969 5.6875 2.875 C6.74324219 3.40867187 7.79898437 3.94234375 8.88671875 4.4921875 C11.55995905 5.78688105 14.2271133 6.94023254 17 8 C17 8.33 17 8.66 17 9 C10.04242456 8.74699726 5.2808951 6.60855892 0 2 C0 1.34 0 0.68 0 0 Z " fill="#243B27" transform="translate(343,528)"/>
<path d="M0 0 C0.99 0.33 1.98 0.66 3 1 C3 1.66 3 2.32 3 3 C0.73495035 4.19984797 -1.53589888 5.38494769 -3.8125 6.5625 C-4.45509766 6.90474609 -5.09769531 7.24699219 -5.75976562 7.59960938 C-7.46926395 8.4765023 -9.23321294 9.24515617 -11 10 C-11.99 9.67 -12.98 9.34 -14 9 C-13.07316406 8.51789063 -12.14632813 8.03578125 -11.19140625 7.5390625 C-9.98161257 6.9013418 -8.77198574 6.26330452 -7.5625 5.625 C-6.95083984 5.30789063 -6.33917969 4.99078125 -5.70898438 4.6640625 C-2.24761656 2.97695701 -2.24761656 2.97695701 0 0 Z " fill="#213724" transform="translate(413,463)"/>
<path d="M0 0 C3.07921132 -0.25660094 5.21136993 -0.39431504 8 1 C10.204364 1.22950319 12.41392173 1.41075933 14.625 1.5625 C15.81351563 1.64628906 17.00203125 1.73007812 18.2265625 1.81640625 C19.59941406 1.90728516 19.59941406 1.90728516 21 2 C21 2.33 21 2.66 21 3 C13.41 3 5.82 3 -2 3 C-1.34 2.01 -0.68 1.02 0 0 Z " fill="#487451" transform="translate(173,422)"/>
<path d="M0 0 C1.42505859 0.00580078 1.42505859 0.00580078 2.87890625 0.01171875 C5.4375 0.3125 5.4375 0.3125 8.4375 2.3125 C5.24925432 3.90662284 1.80853338 3.41424735 -1.6875 3.375 C-2.44160156 3.37048828 -3.19570312 3.36597656 -3.97265625 3.36132812 C-5.83597127 3.34953499 -7.69924555 3.33159942 -9.5625 3.3125 C-6.3533965 0.43720395 -4.27654172 -0.07563951 0 0 Z " fill="#CBD6C7" transform="translate(183.5625,559.6875)"/>
<path d="M0 0 C0.33 0 0.66 0 1 0 C1 10.23 1 20.46 1 31 C0.67 31 0.34 31 0 31 C0 20.77 0 10.54 0 0 Z " fill="#547857" transform="translate(848,486)"/>
<path d="M0 0 C0 0.66 0 1.32 0 2 C-1.609375 3.33203125 -1.609375 3.33203125 -3.75 4.8125 C-7.08848358 7.22165393 -9.60557258 9.60789448 -12 13 C-12 9.28115772 -11.1259934 8.63852271 -8.6875 5.9375 C-7.76517578 4.89916016 -7.76517578 4.89916016 -6.82421875 3.83984375 C-3.01698514 0 -3.01698514 0 0 0 Z " fill="#1D3321" transform="translate(362,461)"/>
<path d="M0 0 C2.94721162 2.74395564 5.19168608 5.38337216 7 9 C6.67 9.66 6.34 10.32 6 11 C1.9957657 7.50912907 0.37328935 5.35048061 0 0 Z " fill="#CDD8C9" transform="translate(278,426)"/>
<path d="M0 0 C0.33 0.66 0.66 1.32 1 2 C3.31 2 5.62 2 8 2 C8 2.33 8 2.66 8 3 C3.71 3 -0.58 3 -5 3 C-5.33 3.66 -5.66 4.32 -6 5 C-6.33 3.68 -6.66 2.36 -7 1 C-3.535 0.505 -3.535 0.505 0 0 Z " fill="#263E27" transform="translate(679,441)"/>
<path d="M0 0 C1.33895632 1.66215268 2.67130142 3.32963607 4 5 C4.5775 5.721875 5.155 6.44375 5.75 7.1875 C7 9 7 9 7 11 C2.94089532 9.64696511 2.0786931 7.65563269 0 4 C0 2.68 0 1.36 0 0 Z " fill="#253F28" transform="translate(700,448)"/>
<path d="M0 0 C4 4.75 4 4.75 4 7 C1.36 7 -1.28 7 -4 7 C-3.34 6.5875 -2.68 6.175 -2 5.75 C-1.34 5.1725 -0.68 4.595 0 4 C0 2.68 0 1.36 0 0 Z " fill="#27412B" transform="translate(502,530)"/>
<path d="M0 0 C4.95 0.99 4.95 0.99 10 2 C10.33 2.99 10.66 3.98 11 5 C10.01 5 9.02 5 8 5 C8 4.34 8 3.68 8 3 C5.36 2.67 2.72 2.34 0 2 C0 1.34 0 0.68 0 0 Z " fill="#E9EEE6" transform="translate(191,451)"/>
<path d="M0 0 C0.33 1.32 0.66 2.64 1 4 C-0.98 5.32 -2.96 6.64 -5 8 C-6.32 7.34 -7.64 6.68 -9 6 C-7.88625 5.566875 -6.7725 5.13375 -5.625 4.6875 C-1.82487666 3.30088881 -1.82487666 3.30088881 0 0 Z " fill="#2B4830" transform="translate(479,478)"/>
<path d="M0 0 C3.82946843 1.45255699 5.12050295 3.42895561 7 7 C6.01 7 5.02 7 4 7 C0 2.65714286 0 2.65714286 0 0 Z " fill="#2C462F" transform="translate(388,465)"/>
<path d="M0 0 C4.875 4.625 4.875 4.625 6 8 C5.01 8.495 5.01 8.495 4 9 C0 3.375 0 3.375 0 0 Z " fill="#253C27" transform="translate(331,514)"/>
<path d="M0 0 C0.33 0 0.66 0 1 0 C1 4.95 1 9.9 1 15 C0.67 15 0.34 15 0 15 C0 10.05 0 5.1 0 0 Z " fill="#537856" transform="translate(848,461)"/>
<path d="M0 0 C0.33 0 0.66 0 1 0 C1 3.3 1 6.6 1 10 C0.67 10 0.34 10 0 10 C0 6.7 0 3.4 0 0 Z " fill="#547957" transform="translate(848,518)"/>
<path d="M0 0 C0.33 0 0.66 0 1 0 C1 2.64 1 5.28 1 8 C0.67 8 0.34 8 0 8 C0 5.36 0 2.72 0 0 Z " fill="#547958" transform="translate(848,477)"/>
<path d="M0 0 C0.33 0 0.66 0 1 0 C1 2.64 1 5.28 1 8 C0.67 8 0.34 8 0 8 C0 5.36 0 2.72 0 0 Z " fill="#567857" transform="translate(848,448)"/>
<path d="M0 0 C0.33 0 0.66 0 1 0 C1 1.98 1 3.96 1 6 C0.67 6 0.34 6 0 6 C0 4.02 0 2.04 0 0 Z " fill="#567E5B" transform="translate(759,521)"/>
<path d="M0 0 C0.33 0 0.66 0 1 0 C1 1.98 1 3.96 1 6 C0.67 6 0.34 6 0 6 C0 4.02 0 2.04 0 0 Z " fill="#547D5A" transform="translate(759,497)"/>
<path d="M0 0 C1.98 0 3.96 0 6 0 C6 0.33 6 0.66 6 1 C4.02 1 2.04 1 0 1 C0 0.67 0 0.34 0 0 Z " fill="#517454" transform="translate(850,440)"/>
<path d="M0 0 C0.33 0 0.66 0 1 0 C1 1.65 1 3.3 1 5 C0.67 5 0.34 5 0 5 C0 3.35 0 1.7 0 0 Z " fill="#557E5B" transform="translate(759,513)"/>
<path d="M0 0 C0.66 0 1.32 0 2 0 C2 0.66 2 1.32 2 2 C1.01 1.67 0.02 1.34 -1 1 C-0.67 0.67 -0.34 0.34 0 0 Z " fill="#517554" transform="translate(812,501)"/>
<path d="M0 0 C0.99 0.33 1.98 0.66 3 1 C2.01 1 1.02 1 0 1 C0 0.67 0 0.34 0 0 Z " fill="#DAE3D6" transform="translate(75,542)"/>
<path d="M0 0 C1 4 1 4 1 4 Z " fill="#517655" transform="translate(580,492)"/>
<path d="M0 0 C1 4 1 4 1 4 Z " fill="#557F5A" transform="translate(759,481)"/>
<path d="M0 0 C4 1 4 1 4 1 Z " fill="#527655" transform="translate(828,463)"/>
<path d="M0 0 C4 1 4 1 4 1 Z " fill="#527856" transform="translate(821,463)"/>
<path d="M0 0 C1 4 1 4 1 4 Z " fill="#537455" transform="translate(884,457)"/>
<path d="M0 0 C1 4 1 4 1 4 Z " fill="#547A57" transform="translate(759,451)"/>
<path d="" fill="#557656" transform="translate(0,0)"/>
<path d="M0 0 C0.99 0.495 0.99 0.495 2 1 C1.01 1.495 1.01 1.495 0 2 C0 1.34 0 0.68 0 0 Z " fill="#718E72" transform="translate(345,533)"/>
<path d="" fill="#537455" transform="translate(0,0)"/>
<path d="" fill="#547756" transform="translate(0,0)"/>
<path d="M0 0 C0.66 0 1.32 0 2 0 C1.67 0.66 1.34 1.32 1 2 C0.67 1.34 0.34 0.68 0 0 Z " fill="#4F7453" transform="translate(718,472)"/>
<path d="M0 0 C3 1 3 1 3 1 Z " fill="#527754" transform="translate(645,463)"/>
<path d="M0 0 C3 1 3 1 3 1 Z " fill="#547A58" transform="translate(619,463)"/>
<path d="M0 0 C3 1 3 1 3 1 Z " fill="#557B58" transform="translate(374,462)"/>
<path d="" fill="#567A58" transform="translate(0,0)"/>
<path d="M0 0 C2 1 2 1 2 1 Z " fill="#D8E2D5" transform="translate(149,604)"/>
<path d="M0 0 C2 1 2 1 2 1 Z " fill="#D7E2D7" transform="translate(130,597)"/>
<path d="" fill="#567A58" transform="translate(0,0)"/>
<path d="" fill="#527456" transform="translate(0,0)"/>
<path d="" fill="#517656" transform="translate(0,0)"/>
<path d="" fill="#527757" transform="translate(0,0)"/>
<path d="" fill="#557859" transform="translate(0,0)"/>
<path d="" fill="#537557" transform="translate(0,0)"/>
<path d="M0 0 C2 1 2 1 2 1 Z " fill="#557858" transform="translate(377,516)"/>
<path d="" fill="#537555" transform="translate(0,0)"/>
<path d="" fill="#527657" transform="translate(0,0)"/>
<path d="M0 0 C2 1 2 1 2 1 Z " fill="#507556" transform="translate(712,511)"/>
<path d="" fill="#56805C" transform="translate(0,0)"/>
<path d="" fill="#4F7354" transform="translate(0,0)"/>
<path d="" fill="#547555" transform="translate(0,0)"/>
<path d="" fill="#829D82" transform="translate(0,0)"/>
<path d="M0 0 C2 1 2 1 2 1 Z " fill="#517654" transform="translate(821,502)"/>
<path d="M0 0 C2 1 2 1 2 1 Z " fill="#507755" transform="translate(803,502)"/>
<path d="" fill="#537857" transform="translate(0,0)"/>
<path d="" fill="#567959" transform="translate(0,0)"/>
<path d="" fill="#567C57" transform="translate(0,0)"/>
<path d="" fill="#537956" transform="translate(0,0)"/>
<path d="" fill="#537A56" transform="translate(0,0)"/>
<path d="" fill="#86A285" transform="translate(0,0)"/>
<path d="" fill="#517556" transform="translate(0,0)"/>
<path d="M0 0 C2 1 2 1 2 1 Z " fill="#577B5B" transform="translate(381,480)"/>
<path d="" fill="#547758" transform="translate(0,0)"/>
<path d="" fill="#527754" transform="translate(0,0)"/>
<path d="" fill="#577758" transform="translate(0,0)"/>
<path d="" fill="#537757" transform="translate(0,0)"/>
<path d="" fill="#537A55" transform="translate(0,0)"/>
<path d="" fill="#537E59" transform="translate(0,0)"/>
<path d="" fill="#D2DCCE" transform="translate(0,0)"/>
<path d="M0 0 C2 1 2 1 2 1 Z " fill="#4F7252" transform="translate(836,463)"/>
<path d="M0 0 C2 1 2 1 2 1 Z " fill="#517955" transform="translate(812,463)"/>
<path d="M0 0 C2 1 2 1 2 1 Z " fill="#527755" transform="translate(628,463)"/>
<path d="M0 0 C2 1 2 1 2 1 Z " fill="#517654" transform="translate(468,463)"/>
<path d="" fill="#4E7453" transform="translate(0,0)"/>
<path d="M0 0 C2 1 2 1 2 1 Z " fill="#557957" transform="translate(869,440)"/>
<path d="M0 0 C2 1 2 1 2 1 Z " fill="#567B55" transform="translate(813,440)"/>
<path d="M0 0 C2 1 2 1 2 1 Z " fill="#527855" transform="translate(579,440)"/>
<path d="M0 0 C2 1 2 1 2 1 Z " fill="#557A58" transform="translate(573,440)"/>
<path d="M0 0 C2 1 2 1 2 1 Z " fill="#577655" transform="translate(518,440)"/>
<path d="M0 0 C2 1 2 1 2 1 Z " fill="#DAE4D7" transform="translate(161,376)"/>
<path d="" fill="#5C655A" transform="translate(0,0)"/>
<path d="" fill="#DAE1D5" transform="translate(0,0)"/>
<path d="" fill="#D9E3D6" transform="translate(0,0)"/>
<path d="" fill="#D9E2D4" transform="translate(0,0)"/>
<path d="" fill="#D9E3D5" transform="translate(0,0)"/>
<path d="" fill="#D6E0D3" transform="translate(0,0)"/>
<path d="" fill="#D7E3D7" transform="translate(0,0)"/>
<path d="" fill="#D5E2D6" transform="translate(0,0)"/>
<path d="" fill="#D9E3D4" transform="translate(0,0)"/>
<path d="" fill="#DBE3D4" transform="translate(0,0)"/>
<path d="" fill="#DBE3D4" transform="translate(0,0)"/>
<path d="" fill="#D6DFD1" transform="translate(0,0)"/>
<path d="" fill="#D7E2D4" transform="translate(0,0)"/>
<path d="" fill="#DAE3D2" transform="translate(0,0)"/>
<path d="" fill="#D9E0D3" transform="translate(0,0)"/>
<path d="" fill="#DBE4D5" transform="translate(0,0)"/>
<path d="" fill="#567659" transform="translate(0,0)"/>
<path d="" fill="#5B7A5C" transform="translate(0,0)"/>
<path d="" fill="#6D8B6D" transform="translate(0,0)"/>
<path d="" fill="#577458" transform="translate(0,0)"/>
<path d="" fill="#557456" transform="translate(0,0)"/>
<path d="" fill="#59765A" transform="translate(0,0)"/>
<path d="" fill="#567458" transform="translate(0,0)"/>
<path d="" fill="#567458" transform="translate(0,0)"/>
<path d="" fill="#597658" transform="translate(0,0)"/>
<path d="" fill="#567456" transform="translate(0,0)"/>
<path d="" fill="#708B70" transform="translate(0,0)"/>
<path d="" fill="#57755B" transform="translate(0,0)"/>
<path d="" fill="#597659" transform="translate(0,0)"/>
<path d="" fill="#D9E5D6" transform="translate(0,0)"/>
<path d="" fill="#769577" transform="translate(0,0)"/>
<path d="" fill="#D5DFCF" transform="translate(0,0)"/>
<path d="" fill="#567758" transform="translate(0,0)"/>
<path d="" fill="#517353" transform="translate(0,0)"/>
<path d="" fill="#6E896E" transform="translate(0,0)"/>
<path d="" fill="#517354" transform="translate(0,0)"/>
<path d="" fill="#537453" transform="translate(0,0)"/>
<path d="" fill="#537755" transform="translate(0,0)"/>
<path d="" fill="#537556" transform="translate(0,0)"/>
<path d="" fill="#527757" transform="translate(0,0)"/>
<path d="" fill="#5B7E5E" transform="translate(0,0)"/>
<path d="" fill="#527859" transform="translate(0,0)"/>
<path d="" fill="#517555" transform="translate(0,0)"/>
<path d="" fill="#779073" transform="translate(0,0)"/>
<path d="" fill="#517755" transform="translate(0,0)"/>
<path d="" fill="#537A58" transform="translate(0,0)"/>
<path d="" fill="#4E6F4F" transform="translate(0,0)"/>
<path d="" fill="#547758" transform="translate(0,0)"/>
<path d="" fill="#76987A" transform="translate(0,0)"/>
<path d="" fill="#547859" transform="translate(0,0)"/>
<path d="" fill="#759577" transform="translate(0,0)"/>
<path d="" fill="#57795B" transform="translate(0,0)"/>
<path d="" fill="#537758" transform="translate(0,0)"/>
<path d="" fill="#537657" transform="translate(0,0)"/>
<path d="" fill="#507653" transform="translate(0,0)"/>
<path d="" fill="#85A085" transform="translate(0,0)"/>
<path d="" fill="#D1DDCE" transform="translate(0,0)"/>
<path d="" fill="#809A83" transform="translate(0,0)"/>
<path d="" fill="#517254" transform="translate(0,0)"/>
<path d="" fill="#577A5A" transform="translate(0,0)"/>
<path d="" fill="#7F977C" transform="translate(0,0)"/>
<path d="" fill="#DAE5D7" transform="translate(0,0)"/>
<path d="" fill="#547957" transform="translate(0,0)"/>
<path d="" fill="#567557" transform="translate(0,0)"/>
<path d="" fill="#517455" transform="translate(0,0)"/>
<path d="" fill="#809A81" transform="translate(0,0)"/>
<path d="" fill="#DAE4D7" transform="translate(0,0)"/>
<path d="" fill="#557754" transform="translate(0,0)"/>
<path d="" fill="#587B59" transform="translate(0,0)"/>
<path d="" fill="#567D59" transform="translate(0,0)"/>
<path d="" fill="#537757" transform="translate(0,0)"/>
<path d="" fill="#517757" transform="translate(0,0)"/>
<path d="" fill="#DBE7DA" transform="translate(0,0)"/>
<path d="" fill="#547757" transform="translate(0,0)"/>
<path d="" fill="#527657" transform="translate(0,0)"/>
<path d="" fill="#527455" transform="translate(0,0)"/>
<path d="" fill="#537455" transform="translate(0,0)"/>
<path d="" fill="#D1DCCD" transform="translate(0,0)"/>
<path d="" fill="#537859" transform="translate(0,0)"/>
<path d="" fill="#517356" transform="translate(0,0)"/>
<path d="" fill="#517654" transform="translate(0,0)"/>
<path d="" fill="#4F7655" transform="translate(0,0)"/>
<path d="" fill="#537957" transform="translate(0,0)"/>
<path d="" fill="#527755" transform="translate(0,0)"/>
<path d="" fill="#517855" transform="translate(0,0)"/>
<path d="" fill="#507351" transform="translate(0,0)"/>
<path d="" fill="#537B57" transform="translate(0,0)"/>
<path d="" fill="#567C5A" transform="translate(0,0)"/>
<path d="" fill="#537A57" transform="translate(0,0)"/>
<path d="" fill="#567D59" transform="translate(0,0)"/>
<path d="" fill="#527656" transform="translate(0,0)"/>
<path d="" fill="#819A7F" transform="translate(0,0)"/>
<path d="" fill="#527957" transform="translate(0,0)"/>
<path d="" fill="#557959" transform="translate(0,0)"/>
<path d="" fill="#547F5B" transform="translate(0,0)"/>
<path d="" fill="#547857" transform="translate(0,0)"/>
<path d="" fill="#507353" transform="translate(0,0)"/>
<path d="" fill="#557958" transform="translate(0,0)"/>
<path d="" fill="#557A58" transform="translate(0,0)"/>
<path d="" fill="#537756" transform="translate(0,0)"/>
<path d="" fill="#587A59" transform="translate(0,0)"/>
<path d="" fill="#D1DCCF" transform="translate(0,0)"/>
<path d="" fill="#557759" transform="translate(0,0)"/>
<path d="" fill="#55815C" transform="translate(0,0)"/>
<path d="" fill="#527655" transform="translate(0,0)"/>
<path d="" fill="#557C57" transform="translate(0,0)"/>
<path d="" fill="#527855" transform="translate(0,0)"/>
<path d="" fill="#537957" transform="translate(0,0)"/>
<path d="" fill="#527655" transform="translate(0,0)"/>
<path d="" fill="#507757" transform="translate(0,0)"/>
<path d="" fill="#537654" transform="translate(0,0)"/>
<path d="" fill="#527855" transform="translate(0,0)"/>
<path d="" fill="#567958" transform="translate(0,0)"/>
<path d="" fill="#547658" transform="translate(0,0)"/>
<path d="" fill="#567B5A" transform="translate(0,0)"/>
<path d="" fill="#587B5C" transform="translate(0,0)"/>
<path d="" fill="#537A57" transform="translate(0,0)"/>
<path d="" fill="#547958" transform="translate(0,0)"/>
<path d="" fill="#D4DDCF" transform="translate(0,0)"/>
<path d="" fill="#567859" transform="translate(0,0)"/>
<path d="" fill="#56795A" transform="translate(0,0)"/>
<path d="" fill="#577958" transform="translate(0,0)"/>
<path d="" fill="#D3DFCE" transform="translate(0,0)"/>
<path d="" fill="#DCE7DB" transform="translate(0,0)"/>
<path d="" fill="#577F5C" transform="translate(0,0)"/>
<path d="" fill="#527654" transform="translate(0,0)"/>
<path d="" fill="#567B5A" transform="translate(0,0)"/>
<path d="" fill="#4F7858" transform="translate(0,0)"/>
<path d="" fill="#5A7F5C" transform="translate(0,0)"/>
<path d="" fill="#527654" transform="translate(0,0)"/>
<path d="" fill="#567858" transform="translate(0,0)"/>
<path d="" fill="#547755" transform="translate(0,0)"/>
<path d="" fill="#567E5B" transform="translate(0,0)"/>
<path d="" fill="#849E86" transform="translate(0,0)"/>
<path d="" fill="#547656" transform="translate(0,0)"/>
<path d="" fill="#597F5E" transform="translate(0,0)"/>
<path d="" fill="#557C5B" transform="translate(0,0)"/>
<path d="" fill="#567958" transform="translate(0,0)"/>
<path d="" fill="#547857" transform="translate(0,0)"/>
<path d="" fill="#567957" transform="translate(0,0)"/>
<path d="" fill="#537A58" transform="translate(0,0)"/>
<path d="" fill="#769576" transform="translate(0,0)"/>
<path d="" fill="#506E52" transform="translate(0,0)"/>
<path d="" fill="#557857" transform="translate(0,0)"/>
<path d="" fill="#4E7051" transform="translate(0,0)"/>
<path d="" fill="#537757" transform="translate(0,0)"/>
<path d="" fill="#4F7651" transform="translate(0,0)"/>
<path d="" fill="#517957" transform="translate(0,0)"/>
<path d="" fill="#547B57" transform="translate(0,0)"/>
<path d="" fill="#537757" transform="translate(0,0)"/>
<path d="" fill="#557856" transform="translate(0,0)"/>
<path d="" fill="#507653" transform="translate(0,0)"/>
<path d="" fill="#537957" transform="translate(0,0)"/>
<path d="" fill="#537A56" transform="translate(0,0)"/>
<path d="" fill="#537656" transform="translate(0,0)"/>
<path d="" fill="#537657" transform="translate(0,0)"/>
<path d="" fill="#507756" transform="translate(0,0)"/>
<path d="" fill="#527956" transform="translate(0,0)"/>
<path d="" fill="#537856" transform="translate(0,0)"/>
<path d="" fill="#537757" transform="translate(0,0)"/>
<path d="" fill="#537856" transform="translate(0,0)"/>
<path d="" fill="#557B57" transform="translate(0,0)"/>
<path d="" fill="#527D57" transform="translate(0,0)"/>
<path d="" fill="#587D5A" transform="translate(0,0)"/>
<path d="" fill="#567C59" transform="translate(0,0)"/>
<path d="" fill="#547956" transform="translate(0,0)"/>
<path d="" fill="#537855" transform="translate(0,0)"/>
<path d="" fill="#7F9A7D" transform="translate(0,0)"/>
<path d="" fill="#537655" transform="translate(0,0)"/>
<path d="" fill="#547555" transform="translate(0,0)"/>
<path d="" fill="#557859" transform="translate(0,0)"/>
<path d="" fill="#58785A" transform="translate(0,0)"/>
<path d="" fill="#7A987C" transform="translate(0,0)"/>
<path d="" fill="#4E7354" transform="translate(0,0)"/>
<path d="" fill="#557B57" transform="translate(0,0)"/>
<path d="" fill="#597F5E" transform="translate(0,0)"/>
<path d="" fill="#557556" transform="translate(0,0)"/>
<path d="" fill="#557558" transform="translate(0,0)"/>
<path d="" fill="#547655" transform="translate(0,0)"/>
<path d="" fill="#567959" transform="translate(0,0)"/>
<path d="" fill="#4F7454" transform="translate(0,0)"/>
<path d="" fill="#517653" transform="translate(0,0)"/>
<path d="" fill="#537A56" transform="translate(0,0)"/>
<path d="" fill="#537A57" transform="translate(0,0)"/>
<path d="" fill="#537B57" transform="translate(0,0)"/>
<path d="" fill="#587C5A" transform="translate(0,0)"/>
<path d="" fill="#4F714E" transform="translate(0,0)"/>
<path d="" fill="#567D56" transform="translate(0,0)"/>
<path d="" fill="#557954" transform="translate(0,0)"/>
<path d="" fill="#557956" transform="translate(0,0)"/>
<path d="" fill="#587D58" transform="translate(0,0)"/>
<path d="" fill="#547955" transform="translate(0,0)"/>
<path d="" fill="#537B55" transform="translate(0,0)"/>
<path d="" fill="#567D56" transform="translate(0,0)"/>
<path d="" fill="#577B56" transform="translate(0,0)"/>
<path d="" fill="#5C7859" transform="translate(0,0)"/>
<path d="" fill="#537956" transform="translate(0,0)"/>
<path d="" fill="#577C58" transform="translate(0,0)"/>
<path d="" fill="#537A54" transform="translate(0,0)"/>
<path d="" fill="#537454" transform="translate(0,0)"/>
<path d="" fill="#597757" transform="translate(0,0)"/>
<path d="" fill="#567C55" transform="translate(0,0)"/>
<path d="" fill="#557B55" transform="translate(0,0)"/>
<path d="" fill="#567C58" transform="translate(0,0)"/>
<path d="" fill="#527755" transform="translate(0,0)"/>
<path d="" fill="#567D58" transform="translate(0,0)"/>
<path d="" fill="#557A57" transform="translate(0,0)"/>
<path d="" fill="#587C58" transform="translate(0,0)"/>
<path d="" fill="#587D5A" transform="translate(0,0)"/>
<path d="" fill="#577859" transform="translate(0,0)"/>
<path d="" fill="#557759" transform="translate(0,0)"/>
<path d="" fill="#567958" transform="translate(0,0)"/>
<path d="" fill="#597F5B" transform="translate(0,0)"/>
<path d="" fill="#5D8262" transform="translate(0,0)"/>
<path d="" fill="#D6E0D2" transform="translate(0,0)"/>
<path d="" fill="#D5DED2" transform="translate(0,0)"/>
<path d="" fill="#DAE3D5" transform="translate(0,0)"/>
<path d="" fill="#D7E3D4" transform="translate(0,0)"/>
<path d="" fill="#D7E1D5" transform="translate(0,0)"/>
<path d="" fill="#D8E0D5" transform="translate(0,0)"/>
<path d="" fill="#D8E1D6" transform="translate(0,0)"/>
<path d="" fill="#D9E3D5" transform="translate(0,0)"/>
<path d="" fill="#D9E4D8" transform="translate(0,0)"/>
<path d="" fill="#D9E2D8" transform="translate(0,0)"/>
</svg>
